<?xml version="1.0" encoding="utf-8"?>
<!-- Generator: Adobe Illustrator 19.0.0, SVG Export Plug-In . SVG Version: 6.00 Build 0)  -->
<svg version="1.1" xmlns="http://www.w3.org/2000/svg" xmlns:xlink="http://www.w3.org/1999/xlink" x="0px" y="0px"
	 viewBox="0 0 400 400" style="enable-background:new 0 0 400 400;" xml:space="preserve">
<style type="text/css">
	.st0{fill:#184182;}
	.st1{fill:#FFFFFF;}
</style>
<g id="Layer_2">
	<rect id="XMLID_109_" x="0" class="st0" width="400" height="400"/>
</g>
<g id="Layer_1">
	<path id="XMLID_108_" class="st1" d="M344.3,174c2.7,7.2,7.8,9.9,11.8,8c-8.9-1-1.7-16.3-13.2-16.3c-0.7,0-1.3,0.1-1.9,0.2
		c-1.9-2.1-4.1-2.9-7.4-2.9c-4.8,0-13.3,4.7-13.3,14.4c0,20.8,24.3,22.7,24.3,41.1c0,5.4-4.1,8.7-8.7,8.7c-4,0-7.2-4.5-10.8-11.7
		c-1.6-3.4-5.1-8-8.8-12.9c1.1,0.8,2.3,1.3,3.5,1.3c1.3,0,2.5-0.4,3.4-1.2c0.9-0.9,1.4-2,1.4-3.3v-0.2c0-1.7-0.7-3.4-1.9-4.7
		c-1.3-1.3-3-2.2-4.8-2.2c-1.2-0.1-2.4,0.3-3.3,1.2c-1,0.8-1.5,2-1.5,3.3v0.1c0,0.7,0.1,1.4,0.4,2.2c-5.2-6.8-10-13.5-10-17.2
		c0-3.3,2.2-6,5-9.4c0.1,0,1,0.5,1,0.5l0.7-0.8c1-1,3-3.3,7.1-7.7l1.3-1.3l-2.7-2.1c0.7-1.6,1.3-3.3,1.7-5.2c0.8,3.4,2.5,5.6,5,4.8
		c-1.6-3.4,1.6-8.1-0.5-16.6c1.9,3.3,4.8,5,6.9,4.4c-5.3-4.7,1.6-11.4-5.4-21.6c2.3,0.7,3.9,0.2,4.8-0.8c-6.3-0.8-3.4-8.9-14.6-12
		c2.8-0.5,4.5-2.1,4-3.5c-2.9,2.1-5.6-4-15.2-3.9c-0.6-3.6-4-7.4-7.7-9.3c0.7,2.9,0,5.4-0.7,7.5l-31.7-31.1
		c-0.8-0.8-1.3-1.1-1.6-0.7c-0.4,0.4-0.2,0.8,0.2,1.6l27.2,34c-2.1,0.7-4.1,1.6-6.2,2.4c-1.3,0.4-2.3,1.8-2.3,3.5
		c-5.1,2.4-9.5,5.6-11.7,7.6c-1.7,1.4-3,1.8-1.4,5.2c0.5,1.3-1.2,4.6,2.7,2.2c2.7-1.6,8.5-4.7,9.3-2.7c0.5,1-2.4,2.4-4.4,3.1
		c-2.1,0.7-4.2,2.3-3.9,3c0.4,0.8,1.9,0,1.9,0.8c0.1,0.8,0.8,1.7,1.6,1.7c0.8,0,1.8-1.7,2.4-1.2c0.7,0.6-0.2,4.4-1,5.2
		c3.1-0.4,5.1-3.3,5.2-5.6c0-2.3,0.7-2.8,1.2-3.1c0.5-0.4,1,2.4,0.4,4.1c1.6-0.4,3.3-2.4,3-6.4c0.8-0.7,1.7-1.2,2.3-1.2
		c1.1,0,3.1,2.9,6,2.9c5.3,0,8.3-4.4,8.7-6.4c0.2-1.7,0.1-3.3-0.7-4.5c1.8,1.6,2.4,4,2.4,5.8c0,7.6-13.4,11.1-18.9,16.4
		c-0.2,0.1-0.5,0.4-0.7,0.6l-6.3-2.5l-0.4,1.5c0,0-0.1,0.4-0.4,1.2c-0.7,2.2-2.1,6.6-2.9,9.2l-0.4,1.1l0.6,0.4
		c-3.7,5-6.8,10.5-7.5,16.2c-1.4-1.5-3-2.8-4.6-4.1c0.2-0.6,0.4-1.2,0.4-1.8c0.1-1.6-0.4-3.2-1.5-4.5c-0.8-0.8-1.8-1.3-2.9-1.4
		c-1.2,0-2.3,0.4-3.1,1.2l-0.5,0.5c-0.3-0.1-0.5-0.3-0.7-0.5c-2.1-1.6-4.6-3.5-6.2-5.2c-0.7-0.7-1.3-1.1-2.8-1.1
		c-0.5,0-1.8-0.1-2.8-0.1s-1.5,0.7-2.5,1.7c-0.5,0.4-1.9,1.6-3.6,2.8c0.8,0.8,1.6,1.7,2.3,2.4c0.4,0.5,0.8,1,1.2,1.5
		c0.5-0.4,0.8-0.6,1.1-0.8c0.7-0.5,1.5-0.8,2.3-0.7c0.8,0,2.1,0.7,2.8,1.8c0.6,0.8,5.7,7.6,9.9,12.3c-0.5,0.1-0.9,0.3-1.3,0.5
		c-1.8,0.7-5.9,0.6-7.7,0.5c-1.8-0.2-2.1-0.7-3.4,1.3c-0.5,0.8-1.1,1.6-1.7,2.3c-0.6,0.7-1.1,1.6,0.2,3.7c1.8,3.1,6.5,11.5,8.1,15.2
		c1.5,3.7,3.3,4.4,6.3,5.6c2.9,1.2,8,4.1,8.5,4.7l0.2-2.9c-0.8-0.8-3.7-1.9-4.7-2.3c-1.1-0.4-1.3-0.8-0.1-0.8c1.3,0,4.8,1.3,7.4,2.3
		c-0.8-2.8-3.5-5.9-5.1-7.6c-2.2-0.6-4.2-0.6-5.2,0.1c0.1,0.5-0.4,1.3-1.2,1.3c-0.7,0-1.3-0.7-1.1-1.6c0.2-0.8,1.6-1.1,1.3-2.7
		c-0.4-1.7-2.3-1.9-3.6-2.1c-1.8-2.7-3.9-6.4-4.8-8c-1-1.6-0.4-2.4,0.2-2.9c1.6-1.3,4.8,0.6,11.2,1.1c2.2,0.1,5.1,0.2,8,0.4
		c0.8,7.5,3.7,14.5,14.1,17.2c5.1,1.2,10.4,5,12.2,9.8c-20.8-0.4-24,7.7-24,15.3c0,8.7,7.4,8.2,7.4,14.7c0,5.7-17.5,8-22.7,8.7
		c-4.5,0.7-7,1.7-9.2,3.9c-2.2,2.2-4.3,4.2-8.2,8.1c0,0,1.7,0.4,3.3,0.3l3-3.8c0.8-1.3,1.4-2.4,2.1-2.3c0.5,0.1,0.1,1.1-0.5,2.4
		l-2.4,4.1c10.1,0.7,10.9-3,10.9-4.6c0-1.6-2.5-2.7-1.1-3.6s2.7-0.4,3.9,1.1c1.2,1.3,1.6,2.5,4.5,1.4c0,0,22.2-9.3,25-10.5
		c2.5-1.2,1.8-2.3,0.4-3.5c-1.7-1.5-1.9-3.6-1.9-6c0-6.6,4-8.7,11.2-8.6c-0.1,1.1-0.1,2.2-0.1,3.1c0,10.6,15.8,20.9,20.2,20.9
		c1.9,0,4.5-1.4,4.7,4.8c0.1,4.7,1,8,0.1,13.4c-0.8,5.4-2.4,6.2-5.6,8.5c-3.3,2.3-6.3,9.4-7.7,11c1.4,0.8,3,1,4.2-2.4
		c1-2.9,2.2-5,3.4-5.7c-1.2,3.1-2.2,7.8-2.8,9.2c4.1,0.7,10.6-2.9,10.6-5.8s-2.3-2.7-2.3-4.6c0-0.8,1.1-1.8,2.3-1.8
		c1.7,0,2.9,1.3,3,1.9c1.8-1,2.9-2.8,2.9-6.9c-0.1-1.7-0.1-3.4-0.2-5.1c0.1,0.2,0.3,0.4,0.4,0.6c0.9,1.2,2.2,2,3.7,2.1
		c1.4,0.1,3-0.2,4.5-1.2c1.6-1.1,2.7-2.5,3-4.2c0-0.4,0.1-0.7,0.1-1.1c0-0.9-0.3-1.7-0.7-2.4c-0.7-1.1-1.8-1.7-3-2.1
		c-1.7-0.4-3.5,0.1-5.2,1.2c-1.4,0.8-2.5,2.3-2.9,3.9c-0.4-5.8-0.7-11.1-0.6-13.3c0.3-3.3,0.4-4.7-0.7-5.2c-1.1-0.5-2.3,1.3-3.9,1.3
		c-1.4,0-6.2-4.3-6.2-8.8c0-4.6,4.8-10.4,4.7-16.7c-0.1-1.9,1.1-2.9,1.8-1.2c1,2.2,2.4,5.1,4.5,7.4c-1.3,7.9,7.4,15.5,14.4,9.8
		c-3.5,0.5-5.9-2.5-7.4-5.7c0.6,0.1,1.2,0.1,1.8,0.1h1.1c2.5,3,10.4,2.8,12.4-4.8c-1.3,1.6-4.2,2.8-6.3,2.5c2.9-2.3,4.6-6,4.6-10.1
		c0-19.8-24.2-22.1-24.2-40.2c0-6.6,5.9-11,9.9-11c1.6,0,2.8,0.5,3.8,1.2c-1.6,1.6-2.4,4-2.2,6.9c0.6,14.3,23.9,13.5,24.2,20.4
		C362.4,184.7,345,188,344.3,174 M282.3,119.2c1.1-2.2,0-5.4,4-5.4c1.9,0,3.6,1.9,5.9,2.7C288.4,116.8,285,117.6,282.3,119.2
		 M261,163c-0.1,1.1-0.6,2.1-1.3,2.9c-0.4,0.4-0.9,0.6-1.4,0.6c-1.3-0.1-2.4-1.7-2.4-3.5v-0.2c0-1.1,0.4-2.1,1.2-2.9
		c0.4-0.2,0.8-0.6,1.6-0.6c0.7,0.1,1.2,0.5,1.5,0.8C260.7,160.9,261,161.9,261,163 M329.9,263.2c0.3-1.2,1.1-2.3,2.2-2.9
		c1.1-0.7,2.4-1.1,3.5-0.8c0.5,0.1,1.2,0.4,1.7,1.1c0.5,0.7,0.5,1.4,0.4,2.1c-0.2,1.1-1.1,2.2-2.2,2.9c-1.9,1.3-4.4,1.2-5.2-0.2
		C329.8,264.7,329.7,263.9,329.9,263.2 M315.4,196.8c0-0.6,0.1-1.3,0.7-1.9c0.6-0.4,1.2-0.6,1.9-0.6c1.1,0,2.4,0.6,3.3,1.6
		c1,1,1.4,2.3,1.4,3.4c0,0.7-0.3,1.4-0.8,1.8c-0.5,0.5-1.1,0.7-1.8,0.7c-1.3-0.1-2.5-0.7-3.3-1.7C315.9,199.2,315.4,198,315.4,196.8
		 M275.9,151.8c1.1-3.5,3.1-10.5,3.1-10.5l3.7,1.5c-1.1,0.4-2.4,1.4-3.5,2.5c1.1,0.4,2.3,0.3,3.3-0.2l-1.4,3.6
		c-0.4-0.6-1.3-1.9-2.4-2.2c-0.7,3,1.1,4.1,2.5,4.8c2.2,1.1,3.6,1.3,4.2,0.2c0.7-1.2-0.7-3-2.7-2.2c-0.1-1.9,1-3,2.2-3
		c1,0,1.8,1,2.1,2.2c-0.1-3.1,1.3-5.6,4.2-6.4c1.1,3,0.3,5.1-2.1,7.3c1.2-0.5,2.5-0.4,3,0.5c0.7,1,0.5,2.4-1.2,3.4
		c-0.4-2.1-2.7-2.2-3.4-0.8c-0.6,1.2,0.4,2.5,2.4,3.6c2.4,1.3,4.4,0.5,5.6-1.6c-0.7-0.2-2.2-0.1-3.4,0.7l2.4-4.6
		c0.2,1.1,0.7,2,1.6,2.7c0.4-1,0.8-2.8,0.1-4.4l5.3,3c-1.8,0.1-3.1,1.5-3.7,2.3c1,0.4,2,0.4,3,0l-2.7,4.5c0-1.6-0.5-2.8-1.2-3.4
		c-1.1,2.2-0.8,4.2,1.5,5.7c2.1,1.2,3.6,1.4,4.5,0.2c0.7-1.2-0.6-3.1-2.5-2.5c0-1.9,1.1-2.9,2.3-2.8c1.1,0,1.8,1.2,2.1,2.5
		c0.7-3.1,2.1-5,5.2-5.6c0.7,3-0.7,5.4-3.5,6.9c1.2-0.4,2.4-0.1,2.9,0.7c0.7,1.1,0.4,2.5-1.4,3.4c-0.3-2.1-2.5-2.4-3.3-1.2
		c-0.6,1.1,0.4,2.2,2.4,3.6c1.3,0.8,3.1,1.8,5.3-0.2c-0.7-0.8-2.3-1.1-3-1.1l2.4-3c0,1.2,0.7,2.4,1.4,2.9c0.4-1.5,0.6-3.1,0.5-4.2
		l3,2.4c0,0-5,5.3-7.4,8.1L275.9,151.8z M308.5,234.1c-1.3,1.9-3.6,2.5-5.1,1.6c-1.4-1.1-1.6-3.5-0.2-5.3c1.3-1.8,3.5-2.5,5.1-1.5
		C309.7,229.9,309.8,232.3,308.5,234.1 M318,219.1c-1.3,1.8-3.6,2.5-5.1,1.4c-1.5-1.1-1.6-3.4-0.3-5.3c1.3-1.8,3.5-2.4,5-1.4
		C319.2,214.9,319.2,217.2,318,219.1 M259.4,182.3c-1.2,0.5-2.2,1.3-2.8,2.4c-1.2,2.5,0.4,5.8,3.5,7.4c1.7,0.8,3.6,1,5.2,0.4
		c1.2-0.4,2.2-1.2,2.8-2.3c0.5-1.2,0.5-2.4,0.1-3.6c-0.7-1.7-2-3.1-3.6-3.9C262.9,181.9,260.9,181.7,259.4,182.3 M260.9,190.1
		c-2.1-1-3.1-3-2.4-4.6c0.3-0.6,0.8-1.1,1.5-1.3c1.2-0.4,2.6-0.2,3.7,0.4c1.2,0.6,2.1,1.6,2.4,2.7c0.3,0.6,0.3,1.3,0,1.9
		c-0.3,0.7-0.9,1.2-1.6,1.3C263.4,190.9,262.1,190.7,260.9,190.1 M298.9,247.7c-1.2,1.1-1.9,2.9-1.9,4.8v0.1c0,1.8,0.6,3.6,1.8,4.7
		c0.8,0.9,2,1.5,3.3,1.6c1.2,0,2.4-0.5,3.3-1.4c1.2-1.1,1.9-2.9,2.1-4.8c0-1.6-0.5-3.1-1.3-4.4c-0.9-1.2-2.3-2-3.7-2.1
		C301,246.2,299.8,246.7,298.9,247.7 M302,256.8c-0.7-0.1-1.4-0.4-1.8-1c-0.7-0.7-1.2-2.1-1.2-3.4c0-1.3,0.5-2.5,1.3-3.4
		c0.5-0.5,1.2-0.8,1.9-0.8c1.7,0.1,3,2.1,2.9,4.3c0,1.3-0.5,2.7-1.3,3.4C303.4,256.5,302.7,256.8,302,256.8 M263.9,147.6
		c-2.4,1.9-3.3,5.2-1.6,7.4c1.6,2.1,5,2.2,7.5,0.2c1.3-1.1,2.2-2.7,2.4-4.1c0.1-1.2-0.1-2.4-0.8-3.3c-0.7-0.9-1.8-1.5-2.9-1.6
		C267,146,265.3,146.5,263.9,147.6 M263.5,152.3c0-1,0.6-2.2,1.7-3c0.8-0.7,1.9-1.1,3-1c0.5,0,1.1,0.2,1.6,0.8
		c0.3,0.5,0.5,1.1,0.4,1.7c-0.2,1.1-0.8,2-1.7,2.7c-1.6,1.2-3.6,1.3-4.6,0.1C263.6,153.3,263.5,152.8,263.5,152.3 M308.4,261.1
		c-1.1,0.7-1.8,1.8-2.1,3c-0.2,1.3,0.2,2.8,1.3,4c1,1.1,2.4,1.9,4,2.2c1.6,0.2,3.3,0.1,4.6-0.6c1.3-0.7,2.3-1.9,2.5-3.4
		c0.5-2.8-1.8-5.6-5.3-6.2C311.7,259.7,309.8,260.1,308.4,261.1 M312.1,268.2c-2.3-0.4-4-2.2-3.6-3.7c0.1-0.7,0.5-1.3,1.1-1.7
		c1.1-0.7,2.4-1,3.6-0.7c2.2,0.5,3.6,1.9,3.6,3.5v0.4C316.5,267.6,314.4,268.7,312.1,268.2 M338.5,253.6c0,4.5,3.6,8.1,8.1,8.1
		c4.5,0,8.1-3.6,8.1-8.1c0-4.5-3.6-8.1-8.1-8.1C342.2,245.5,338.5,249.1,338.5,253.6 M340.6,253.6c0-3.3,2.8-6,6-6c3.4,0,6,2.8,6,6
		c0,3.3-2.7,6-6,6C343.4,259.6,340.6,256.9,340.6,253.6 M155.3,207.4c0.7-2.1-3-4.4-3.4-7.1c-0.4-2.9-0.1-5.7-3.4-9.5
		c-3.3-3.7-14.5-15.7-17.9-19.6c1,0,2.9-0.5,5,1.5c1.2,1.1,3.6,3.4,5.9,5.7c2.9-7.6,6.6-13.3,11.8-19.2c0.7-0.7,1.3-1.4,2.1-2.2
		c-1.9,0.6-5,1.1-6.6,2.2c-0.1-3.3,0.1-5.9-2.2-8c0.8-4.7,0.1-10.3-10.1-17c5.3,1.2,8.3,6,12.4,2.4c-3.6-0.1-3.7-8.1-16.8-14.6
		c5-0.1,8.8,8,14.6,3.4c-5.4-0.7-7.3-10.4-17-13.4c3.4,0.5,6.9,2.2,9.8-1.8c-3.4,0.7-5.3-2.4-9.1-2.7c1.5-4.2,1.1-6.9-0.4-10
		c-2.5,0.1-5.2,1-7.1,2.5c-0.3-2.4-2.7-2.5-4.8-2.3c0.1,1,0.6,2.4-0.6,2.7c-1.7,0.4-7.5,1.9-12.1,3.6c-4.5,1.8-9.7,5-11.1,6
		c-1,0.6-1.7-0.8-2.3-1.6c-1.6,1.3-3.1,3.1-1.9,5c-2.5,0.1-5.3,0.8-7.6,2.7c0,2.9,2.4,5.8,6,7.4c-6.2,6-0.6,11.6-6,16.8
		c7.6,0.4,6.3-10.1,10-11.6c-0.4,7.4-4.5,8.7-4.5,16.6c0,4.4,2.5,8.8,0.2,11.7c6.3-1.8,4.6-15.7,8.6-19.8c0.7,2.3,0.2,4.7-0.5,7
		c-2.3,6.5,0.2,15.3-3.3,18.2c6.4-0.6,7.3-10.9,12.5-14.7c-4.5,9.3-9.2,29-16,38.9c-10.9,14.7-17.3,32.7-27.4,32.7
		c-4.3,0-7.7-2.7-7.7-8.3c0-16.7,28.8-28.3,28.8-46.2c0-7.9-6.4-11-10.5-11c-2.8,0-6,1.4-8.8,3.7c-1-0.5-2.2-0.8-3.4-0.8
		c-10.1,0-7.5,18.2-16.3,18.1c3.5,1.9,9.5-1.8,13.2-7c-1.6,11.8-18.6,8.7-17.3,23c2.4-11.1,29.6-9.5,29.6-26.5c0-1.8-1-3.5-2.4-4.7
		c2.2-1.3,4-1.8,5.8-1.8c3.3,0,6.3,2.4,6.3,7.2c0,15-28.6,27.6-28.6,45.9c0,3.1,0.8,5.8,2.4,7.7c-2.1,0.8-4.1,0.5-5.8-1.6
		c-0.2,4.8,6.5,7.7,10.8,5.4c1,0.3,2.1,0.5,3,0.6c-1.3,3.5-5.7,4.5-8,4.4c7,5.6,19.2-1.7,18.6-8c5.6-4.5,9.1-12.2,13.1-17.2
		c-0.3,1.1-0.5,2.2-0.6,3.4c-4.1,7.5-8,14.1-9.1,24c-0.8,8.2-5,15.6-10.8,15.6c-1.3,0-3.4-1.7-4.4-0.8c-1.8,1.6-0.1,3.1-0.1,4.7
		c0,2.3-4.5,4.7-4.5,11.8c0,3.3,1.9,7.3,1.2,9.3c1.8-0.8,4.2-4,5.3-8c1.9,9.5-4.1,9.1,0.2,17.6c0.6-2.9,3.4-4,5.1-2.9
		c1.7,1.2,0.8,2.1-0.4,3.3c-1.3,1.3-2.4,7.6,3.3,7.2c-1-0.7-1.1-2.4,1.8-3c4-0.7,5.1,1.1,9.3,1.1c2.7,0,3.4-3.5,5.4-3.5
		c2.1,0,2.1,1.7,1.3,2.9c3.4-1,4-2.8,4-4.7c0-1.8-1.6-3-0.4-3.7c1.2-0.7,5.1,0.1,3.5,3.3c2.1-0.4,3-1.8,3-4.2c0-2.4-2.8-3.9-5.3-3.4
		c-0.5-1.6-2.8-2.4-4.8-2.4c-4.7,0-4,3.7-7.1,3.7c-5.2,0-10.1-6.8-10.1-18c0-6,6.5-7.6,11.1-9.5c4.6-1.9,12.6-7,17.4-15.1
		c3.9-6.3,4-13.3,3.5-21.5c6.4,3.8,7.2,9.1,7.2,12.9c0,5.1-2.7,7.1-4.7,8.1c-1.8,0.7-2.3,0.5-2.5,1.5c-0.2,1.3,0.6,2.1,1.4,2.4
		c2.3,1.2,1.8,3.5,2.5,5.9c0.6,2.4,2.8,6.3,6.4,9.1c0.4-1.6,0.2-4,0-7c5.1,2.4,1.1,12.4,10.8,12.4c-1.8-1.1-1.3-3.7-0.4-4.1
		c1.1-0.4,2.4,0.7,4.2,3.3c1.9,2.7,1.3,2.4,5.9,2.4c4.6,0,2.5-1.6,5-1.6c2.4,0,2.3,2.8,1,4.8c4.1-1.2,5.3-4.2,3.9-7.5
		c3.6-1.9,5.6,0.8,6,2.8c3.6-3.5,0-7.8-2.8-8.1c0.1-1.3-1.1-2.8-2.5-2.8c-1.6-0.1-3-0.3-4.6-0.1c-1.7,0.1-2.7,2.5-4.6,2.5
		c-6,0-18-11-18-15.8c0-4.7,11.5-7.6,11.5-15c0-9.7-9.5-12.9-17.5-19.1c2.9-3.1,11.1-4,15.8-1.7c0.6-2.7,2.3-1.9,2.9-6.6
		c1.7,4.1,0,7.6,1.7,9.3c1.3-1.9,4.8-1.6,4.6-6.6c1,3.1-1.3,8,1,10c0.5-2.5,2.1-3,3-3s1.8,0.7,1.8,2.2c0,3.9-4.8,2.1-4.8,6.4
		c0,1.8,2.4,2.5,2.4,3.6c0,1.2-1.9,3-4.2,1.6c0.7,1.6,2.3,3.1,4.2,3.1c2.2,0,4.4-1.7,5.2-3.9c1.2,2.8,0.4,5.8-1.7,6.2
		c2.2,1.1,7.1,0.1,6.5-6.3c2.8,0.5,4.2,2.4,2.7,5.8c2.3-0.6,4.3-1.7,4.3-4.2C156.5,210.5,154.4,209.8,155.3,207.4 M101,120.5
		c-2.7,0.2-2.5-2.3-7.1-3.4c3.1-0.7,7.4-2.3,11-3.7C105.6,116.4,104.3,120.2,101,120.5 M119.6,140.2c-3.4,1.5-6-1.6-6.6-3.5
		c-0.7-2.1-1.2-3.7-0.5-4.5c1.5-1.4,1.9-2.7,1.1-4.3c-1-2.2-3.1-1.1-5.6-0.6c1.1-1.9,1.2-3.4-0.4-3.1c-1.8,0.1-1.8,3-2.8,2.8
		c-1-0.4-0.5-2.1-0.5-2.9c0.1-1.3,0.8-1.7,2.1-2.3l9.8-3.6c1.3-0.5,2.2-0.7,3,0.1c0.6,0.6,2.2,1.4,1.7,2.4c-0.5,1-2.5-1.2-4,0
		c-1.2,0.8-0.1,1.8,2.1,2.4c-2.1,1.3-4.4,2.1-3.6,4.3c0.6,1.8,1.7,2.3,3.8,2.3c1.1,0,1.9,1.7,2.8,3.5
		C122.9,135.2,123.2,138.7,119.6,140.2 M120.2,112.9c-2.7,2.1-6.2,0.2-7.7-2.4c3.6-1.6,7.7-3.1,10.6-5
		C120.5,109.5,122.3,111.4,120.2,112.9 M114.3,88.2c0.7,1.2,1,1.7,1,2.7c-0.8-0.5-1.4-1.1-1.9-1.8l0.4,4.3c0.6-0.7,1-1.3,1.6-1.6
		c-0.1,2.9-1.2,4-2.2,4.2c-1.2,0.2-2.2-0.6-2.3-1.4c-0.3-1.3,0.8-2.1,1.9-1c0.2-2.5-1.9-2.5-2.8-1.4c1.1-2.5,0.6-4.2-1.6-5.6
		c-1.5,2.4-0.8,3.9,1,5.7c-1.7-0.8-3.3,0.6-1.8,2.5c0.4-1.7,1.8-1.2,2.2,0.1c0.4,1.1-0.8,2.5-2.7,3.1c-2.7,0.8-3.5-0.8-4.2-2.4
		c0.6-0.4,1.9-0.2,3.5,0.7l-1.3-4.2c-0.4,1.2-1.3,2.2-2.5,2.7c-0.1-1.3,0.8-3.8,0.8-3.8l-5.2,2.1c0,0,2.4,1.1,3.3,2.1
		c-1.1,0.5-2.2,0.6-3.7,0l2.2,4c0.4-1.8,1.2-2.9,1.9-3c0.6,1.6,1.1,3.4-1.3,4.6c-1.8,1-3.6,0.7-4.2-0.4c-0.6-1.2,0.1-2.5,1.6-1.6
		c-0.2-2.4-2.4-2.4-3-0.6c0-2.5-0.6-4-3.4-4.7c-0.6,2.5,0.2,4.1,2.8,5.1c-1.4-0.1-2.9,1.3-1,3c0-1.6,1.3-1.7,2.1-0.7
		c0.5,0.9,0.3,2.1-0.6,2.7c-0.8,0.5-2.4,0.5-4.6-1.4c0.7-0.3,1.3-0.1,2.3,0l-2.8-3.4c0.1,1.2,0.1,2.1-0.1,2.7
		c-0.6-0.7-0.8-1.2-1.1-2.5l-2.2,1.8c2.1,1.2,4.4,3.1,7.1,7c2.9-1.8,8.2-4.4,11.5-5.7c3.3-1.3,8.7-3.3,12.1-4
		c-0.7-4.6-0.4-7.6,0.3-9.9L114.3,88.2z M92.5,82.4l1.6,3.3l1.8-2.3c0.1,0,0.2,0.1,0.2,0.1c0.2,1.1,0.2,3,0.2,4.1
		c0,1.3,1.1,2.4,2.4,2.4c1.3,0,2.4-1.1,2.4-2.4c0-0.9-0.5-1.7-1.3-2.1c-1-0.7-1.9-1.7-2.7-2.4c0.1-0.1,0.1-0.2,0.1-0.4l3.1,0.4
		l-1.2-3.4l-2.4,2.1c0-0.1,0-0.1-0.1-0.1L96.6,78l-3.3,1.2l2.2,2.7c-0.1,0-0.1,0.1-0.1,0.2L92.5,82.4z M104.5,84.9
		c0.7-0.7,0.7-1.9,0-2.5c-0.6-0.8-1.8-0.9-2.5-0.2c0,0-0.1,0.1-0.1,0.1c-0.7,0.7-0.7,1.9,0,2.7c0.6,0.7,1.7,0.9,2.4,0.3
		C104.3,85.1,104.4,85,104.5,84.9 M108.7,81.8c0.7-0.7,0.7-1.9,0-2.7c-0.7-0.7-1.9-0.7-2.7,0c-0.7,0.7-0.7,1.9,0,2.7
		C106.8,82.5,108,82.5,108.7,81.8 M113.7,82.6c0.7-0.7,0.7-1.9,0-2.7c-0.7-0.7-1.9-0.7-2.7,0c-0.7,0.7-0.7,1.9,0,2.7
		C111.7,83.3,112.9,83.3,113.7,82.6 M114.1,86.6c0.7,0.7,1.8,0.7,2.7,0c0.7-0.7,0.7-1.9,0-2.7c-0.8-0.7-2.1-0.7-2.7,0
		c-0.7,0.6-0.9,1.7-0.3,2.4C114,86.4,114,86.5,114.1,86.6 M92.8,90.1c1.1,0,1.9-0.8,1.9-1.9c0,0,0,0,0,0c0-1-0.8-1.8-1.9-1.8
		c-1,0-1.8,0.8-1.8,1.8C90.9,89.2,91.8,90.1,92.8,90.1 M87.8,90.3c1.1,0,1.9-0.7,1.9-1.8c0-1.1-0.8-1.9-1.9-1.9c0,0,0,0-0.1,0
		c-1,0-1.8,0.8-1.8,1.9C86,89.6,86.8,90.3,87.8,90.3 M86.7,92.6c0-1.1-0.8-1.9-1.8-1.9c-1.1,0-1.9,0.8-1.9,1.9c0,0,0,0,0,0.1
		c0,1,0.8,1.8,1.9,1.8C85.9,94.4,86.7,93.6,86.7,92.6 M87.4,97.6c0-1.1-0.9-1.9-1.9-1.9c-1,0-1.8,1-1.8,1.9c0,1.1,0.8,1.8,1.8,1.8
		C86.6,99.4,87.4,98.7,87.4,97.6 M212.6,232.3c0,0.1,0.2,0.3,0.5,0.4c3,0.8,6.4-1.3,8.2-0.8c-2.3-0.8-3.9,0.6-6,0.1
		c1.3,0,2.7-0.2,2.8-0.6c-1.1,0.6-4-0.5-5.2,0.2c0,0.1-0.1,0.1-0.2,0.2c-0.8,0.1-1.7,0.7-1.7,1.3c0,2.1,7.6,0.5,7.6,1.1
		c0,0.5-1.4,1.1-3.5,1.1c-1.4,0-4.1-1.1-7.5-0.2c0.4-0.6,1-1.4,0.7-1.8c0.2-0.1,0.4-0.4,0.4-0.5c-0.1-0.2-0.3-0.2-0.5-0.4
		c0.1-0.1,0-0.2-0.1-0.4c0,0-0.1-0.2-0.1-0.4c-0.2-0.2-0.5-0.3-0.7-0.4c-0.2-0.2-0.5-0.2-0.6-0.2h-0.4c-0.2,0-0.4,0-0.4,0.2
		c-0.1-0.1-0.3-0.2-0.5-0.2c-0.1,0.2-0.2,0.5-0.1,0.8c-0.2,0-0.6,0.6-0.8,0.5c0.1,0.1,0.1,0.3,0.2,0.4c-0.1,0.4-0.2,0.8-0.5,0.8
		c0.1,0.1,0.2,0.2,0.2,0.4c-0.1,0.5-0.2,1.3-0.1,1.8c-0.5-0.5-1.2-1.6-1.6-1.8c-0.5-0.4-0.5-0.6-0.5-1s0.1-0.7,0.1-1.1
		c0,0-0.1-0.2-0.1-0.4c-0.1-0.2-0.4-0.4-0.6-0.4c0.1,0.1,0.2,0.1,0.2,0.4c0,0.1-0.1,0.2-0.1,0.2c-0.1,0.1-0.1,0.2,0,0.4v0.2
		c0,0.1,0,0,0,0c-0.1-0.2-0.2-0.6-0.5-0.7h-0.2c0-0.2-0.2-0.5-0.6-0.1c0.1,0,0.3,0,0.3,0.1v0.2c-0.1,0.2,0.1,0.4,0.5,0.4
		c0,0,0.1,0,0.1,0.1v0.1c-0.6-0.2-0.8,0-0.8,0.2v0.2c-0.1,0.1-0.1,0.4,0.1,0.5c0,0,0-0.2,0.1-0.2h0.1l0.1,0.1c0,0,0.1,0,0.4-0.1
		c0.1,0,0.1,0,0.3,0.1c-0.4,0.4-0.4,0.7,0.1,0.7l0.1,0.1c-0.1,0.6-1,0.5-0.8-0.1c-0.5,0.7,0.4,1.3,1,1c0-0.1,0-0.1,0,0
		s0.1,0.2,0.3,0.2c0-0.1,0-0.1,0.1-0.1c0,0.1,0.1,0.4,0.4,0.4c0-0.1,0-0.2,0.1-0.2c0,0-0.1,1,0.8,1.6c0.1,0.5,0.6,0.7,1,0.7
		c0.2,0.4,0.5,0.7,0.4,0.7c-0.1,0-1.2-0.1-1.5,0c-0.3,0.1-0.6,0.2-1,0.4h-0.1h0.1c-0.4,0-0.6,0-0.7-0.2c-0.1-0.1-0.1-0.2-0.2-0.5
		c-0.1-0.1-0.2-0.2-0.4-0.2h-0.2c-0.1-0.1-0.5-0.2-0.6-0.1c0.1,0,0.2,0.1,0.4,0.4c-0.1,0-0.1,0.1-0.1,0.1c-0.1,0.1,0,0.4,0.6,0.6
		c0,0,0.1,0,0,0.1c-0.1,0-0.2,0-0.4-0.1c-0.3-0.1-0.3-0.5-0.6-0.2l-0.1,0.1c0,0,0-0.1-0.1-0.1c-0.2,0-0.7,0.4-0.5,0.7
		c0-0.1,0.1-0.2,0.4-0.4v0.2c0.1,0.4,0.2,0.6,0.8,0.1c0.1,0,0.1,0.1,0.1,0.1c-0.1,0.2-0.6,0.5-0.2,0.7c0,0,0,0.1,0.1,0.1v0.1
		c-0.1,0.4,0.4,0.6,0.6,0.6c-0.1-0.1-0.4-0.2-0.2-0.6c0,0.1,0.1,0.1,0.2,0.1c0.3-0.1,0.1-0.6,0.3-0.7c0.1,0,0.1,0,0.1,0.1
		s0.1,0.5,0.5,0.5c0.4-0.1,0.6-0.4,0.5-0.6h0.1c0.1,0.1,0.1,0.2,0.1,0.4c0.1,0,0.3-0.1,0.3-0.2c0.1,0.1,0.1,0.5-0.1,0.7
		c0.1-0.1,0.5-0.2,0.6-0.7c0.1,0.1,0.1,0.1,0.1,0.2c0.2,0,0.5,0,0.8-0.1v0.1c0,0.1,0,0.4,0.1,0.4c0,0,0-0.2,0.1-0.2s0,0.5,0.2,0.6
		c0.1-1,0.6-0.5,1.2-1v0.1c0,0.1-0.1,0.1-0.3,0.2c0.2,0,1-0.2,1-0.6c0-0.1,0.4-0.5,0.5-1.7h0.4c0.7,0,1.1-0.6,1.9-0.7
		c-0.2,0.2-0.2,0.8-0.2,1.2c0,0.4,0.6,1,0.7,1.1c-0.3,0.1-0.5,0.1-0.6,0.2c-0.6,0.4-0.6-1.1-1.3-0.7c-0.1,0-0.2,0.1-0.2,0.1
		c-0.2,0-0.7,0.4-0.6,0.6c0.1-0.1,0.2-0.2,0.5-0.2v0.1c0,0.1,0,0.2,0.2,0.2c0.1,0,0.1-0.1,0.2-0.1l0.1,0.1c0,0.2-1-0.1-0.7,0.6
		c0,0,0.1,0.1,0.1,0.2c0,0.1,0.1,0.4,0.5,0.2c0,0-0.1-0.1-0.1-0.2h0.1c0.1,0,0.1,0,0.1-0.1c0.1,0,0.1,0,0.1,0.1v0.4
		c0,0.2,0.4,0.5,0.7,0.2c0,0-0.2-0.1-0.4-0.2h0.3v-0.2c0-0.1,0.1-0.1,0.1-0.1h0.1c0.1,0,0.1,0,0.2,0.1c0,0.1,0.2,0.2,0.5,0.1
		c0.5-0.1,0.1-0.5,0.5-0.6h0.2c0.4,0.1,0.7,0.1,0.7,0c0.1-0.2,0.1-0.8-0.4-1.1c-0.1-0.1,0.4-1.6-0.7-2.3c0.5,0.1,2.2,0.4,2.5,0
		c0.5,0.1,1.1,0.4,1.1,0.5c0.1,0.1,0.1,0.2,0,0.4c-0.5,0.2-0.4,0.4-0.6,0.5h-0.1c-0.1-0.1-0.2-0.4-0.4-0.4c-0.3-0.1-0.4-0.1-0.4,0
		c-0.2-0.1-0.6,0-0.7,0.2c0.1,0,0.2-0.1,0.5,0v0.1c0,0,0,0.1,0.1,0.2c-0.2,0-0.7,0-0.6,0.2v0.2c-0.1,0.1-0.2,0.4-0.1,0.6
		c0-0.1,0.1-0.2,0.4-0.4c0,0.1,0,0.1,0.1,0.2c0.1,0.1,0.4-0.2,0.6-0.2c0.1,0,0.1,0.1,0,0.1c-0.2,0.1-0.5,0.2-0.4,0.5
		c0,0,0,0.1,0.1,0.1c-0.1,0.3-0.1,0.5,0.3,0.6v-0.4h0.2c0.5-0.2,0.2-0.6,0.4-0.7c0.2-0.2,0.5,0.2,0.8-0.1c0.1,0,0.1-0.2,0.1-0.4
		v-0.1c0.1,0.2,0.1,0.4,0.4,0.2c-0.3-0.4,0-0.5,0.1-0.6c0,0,0.1-0.1,0.1,0c0.1,0,0.4-0.1,0.6-0.4c-0.2,0.1-0.8-0.2-0.5-0.4
		c0.5-0.2,0.6-0.5,0.4-0.7c-0.4-0.6-1.2-0.6-1.2-1.2h0.7c2.5,0,4.2-0.7,4.2-1.6c-0.1-1.7-7.9,0.1-7.9-1.1
		C211.5,232.8,212,232.4,212.6,232.3 M206.9,232.5c0.1,0.1,0.6,0.2,0.8,0.4c-0.4,0-0.3,0.2-0.5,0.2C207,233,206.9,232.8,206.9,232.5
		 M206.4,232.3c-0.1,0.1-0.4,0.4-0.6,0.1c-0.1-0.2,0-0.2-0.1-0.6C205.8,231.9,206.3,232.2,206.4,232.3 M205.6,234
		c0.1-0.1,0.1-0.2,0.2-0.2c0.1,0,0.3,0,0.3-0.1c0.1-0.2-0.1-0.4-0.3-0.4c0.3-0.1,0.3-0.1,0.3-0.2c-0.1-0.1-0.4,0.1-0.4,0
		s0.1-0.1,0.1-0.2h0.2l0.7,0.4c0.1,0.1,0.1,0.1,0.1,0.2v0.2c-0.1,0-0.1-0.2-0.3-0.2c-0.1-0.1-0.1,0,0,0.2c-0.2-0.1-0.4-0.2-0.5,0
		c0,0.1,0,0.2,0.1,0.4c0,0,0,0.1-0.1,0.4c0,0.1-0.2,0.4-0.5,0.2C205.5,234.5,205.5,234.1,205.6,234 M215,221.6
		c0.1,0.1,0.2,0.2,0.6,0.4c2.9,0.8,6.4-1.5,8.1-0.8c-2.3-0.8-3.7,0.6-6,0.1c1.3,0,2.8-0.4,2.8-0.7c-1,0.7-3.9-0.4-5.1,0.4
		c-0.1,0-0.3,0.1-0.3,0.1c-1.7,0-3,0-3,1.1c0,2.3,6.3,1,8.2,1c1.9,0,1.7,0.1,1.7,0.5c0,0.6-2.2,0.7-3.4,0.7c-1.6,0-6.8-0.8-9.8-0.2
		c0.3-0.5,0.7-1.1,0.5-1.6c0.2-0.1,0.5-0.2,0.5-0.5c-0.1-0.2-0.4-0.2-0.6-0.4c0.1-0.1,0-0.2-0.1-0.4l-0.1-0.4
		c-0.2-0.2-0.4-0.4-0.7-0.5c-0.4-0.2-0.5-0.2-0.7-0.2l-0.4,0.1c-0.1-0.1-0.4-0.1-0.4,0.1c-0.2-0.2-0.4-0.2-0.6-0.2
		c-0.1,0.3-0.1,0.6,0,0.8c-0.4,0-0.6,0.7-0.8,0.7c0.1,0.1,0.1,0.2,0.3,0.2c-0.3,0.4-0.4,1-0.6,1c0.1,0.1,0.2,0.1,0.2,0.2
		c0,0.2-0.1,0.6-0.1,0.8l-0.2-0.1h-0.1c-0.4,0-0.6,0-1.2-0.4c-0.5-0.2-0.5-0.5-0.5-1c0-0.4,0.1-0.7,0.1-1.1c0-0.1,0-0.2-0.1-0.4
		c-0.1-0.2-0.4-0.5-0.6-0.4c0.1,0,0.2,0.1,0.2,0.4l-0.1,0.1c-0.1,0.1-0.1,0.4,0,0.5v0.2c0,0.1-0.1,0.1-0.1,0c0-0.2-0.1-0.7-0.5-0.7
		h-0.1c0-0.4-0.4-0.6-0.7-0.2c0.1,0,0.2,0.1,0.2,0.1v0.4c0,0.2,0.2,0.4,0.5,0.4c0.1,0,0.1,0.1,0.1,0.1v0.1c-0.5-0.2-0.7,0-0.7,0.3
		v0.2c-0.2,0.1-0.2,0.4,0.1,0.6c0-0.1-0.1-0.2,0.1-0.2v-0.1l0.1,0.1c0.1,0.1,0.1,0,0.4,0c0-0.1,0-0.1,0.1-0.1c0,0.1,0.1,0.1,0.1,0.1
		c0.1,0.1,0.1,0.1,0,0.1c-0.4,0.4-0.3,0.7,0.2,0.7v0.1c0,0.7-0.8,0.6-0.8-0.1c-0.5,0.7,0.4,1.3,1.1,1c0,0.1,0.1,0.2,0.2,0.2
		c0,0,0-0.1,0.1-0.1c0,0.2,0.1,0.5,0.4,0.5c0-0.1,0-0.2,0.1-0.2s0.1-0.4,0.8,0.1c0.1,0.1,0.1,0.2,0.4,0.4l0.5-0.1
		c0,0.4,0.1,1.1,0,1.1s-1-0.1-1.3,0c-0.4,0.4-1.4,0.7-1.8,0.2c-0.1-0.1-0.1-0.4-0.2-0.5c-0.1-0.2-0.2-0.4-0.4-0.4h-0.2
		c-0.1-0.1-0.5-0.1-0.7,0c0.1,0,0.4,0,0.5,0.2c-0.1,0-0.1,0.1-0.1,0.2c-0.1,0.1,0,0.4,0.6,0.6c0,0,0.1,0,0,0.1c0,0-0.2,0-0.4-0.1
		c-0.2-0.1-0.2-0.5-0.6-0.2h-0.2c-0.4,0-0.8,0.4-0.6,0.7l0.4-0.4c0,0.1,0.1,0.2,0.1,0.2c0,0.4,0.2,0.6,0.8,0.1c0.1,0,0.1,0,0.1,0.1
		c-0.1,0.3-0.6,0.6-0.2,0.8l0.1,0.1c-0.1,0.4,0.4,0.7,0.6,0.7c-0.1-0.1-0.4-0.4-0.2-0.6h0.2c0.2-0.1,0.1-0.5,0.2-0.6
		c0.1-0.1,0.1,0,0.1,0c0,0.1,0.1,0.5,0.6,0.5c0.4,0,0.5-0.4,0.5-0.6c0.1,0.1,0.2,0.2,0.2,0.5c0-0.1,0.3-0.1,0.3-0.4
		c0.1,0.2,0.1,0.5-0.1,0.7c0.1,0,0.6-0.2,0.6-0.6c0.1,0,0.1,0.1,0.2,0.1c0.1,0,0.4,0.1,0.8,0v0.5c0-0.1,0.1-0.2,0.3-0.2
		c0.1,0,0,0.4,0.2,0.6c0-1,0.8-0.7,1.4-1.2c0.1,0,0.1,0,0.1,0.1c0,0.1-0.1,0.2-0.2,0.2c0.6,0.5,1.3-0.5,1.6-1l0.2-0.2
		c0,0.1,0,0.2-0.1,0.4c0.6,0,0.6-0.5,0.8-0.5c2.1,0.1,0.5-1.7,3.7-1.2c0.1,0.1,0.6-0.1,0.7-0.2c-0.1,0.4-0.2,1.2,0.2,1.3
		c0.2,0,0.6,0.2,0.7,0.4c0.1,0,0,0,0,0c-0.2,0-0.4,0.1-0.6,0.2c-0.7,0.4-0.7-1.1-1.5-0.7c0,0-0.1,0-0.2,0.1c-0.2,0-0.6,0.3-0.6,0.6
		c0.1-0.1,0.3-0.2,0.5-0.2v0.1c0,0.1,0,0.2,0.2,0.2s0.2-0.1,0.4-0.1v0.1c0,0.2-0.8-0.1-0.7,0.6c0,0,0.1,0.2,0.3,0.2
		c-0.1,0.2,0.1,0.5,0.5,0.4c0-0.1-0.2-0.2-0.1-0.2h0.1l0.1-0.1v-0.1l0.1,0.1l-0.1,0.1l0.1,0.2c0,0.2,0.4,0.6,0.8,0.4
		c-0.1-0.1-0.5-0.1-0.5-0.2c0.1,0,0.2-0.1,0.2-0.1v-0.2h0.1c0.1-0.1,0.1-0.1,0.2-0.1l0.1,0.1c0,0.1,0.2,0.2,0.5,0.2
		c0.6-0.2,0.1-0.6,0.5-0.7h0.4c0.4,0.1,1,0.1,1.1-0.1c0.1-0.1,0-0.8-0.4-1.1c-0.4-0.1,0-0.5-0.2-0.8c0.4,0.3,0.9,0.4,1.4,0.4
		c1,0,1.6-0.1,2.1-0.4c0.6-0.4,1.2-0.2,1.3-0.1c0.1,0,0.2,0,0.1,0.2c-0.2,0.6-0.1,0.6-0.2,0.8c-0.1,0.2-0.6,0-1,0
		c-0.1,0-0.2,0.1-0.2,0.1c-0.4,0.1-0.7,0.4-0.7,0.6c0.1,0,0.2-0.2,0.5-0.2v0.1c0,0.4,0.4,0.5,0.6,0.2c0.1,0,0.1,0,0.1,0.1
		c-0.2,0.1-0.7,0.5-0.5,0.6l0.1,0.1c0,0.2,0.1,0.5,0.2,0.5c0-0.1,0-0.2,0.1-0.5h0.2c0.2,0,0.2-0.5,0.5-0.6c0.1,0,0.1,0,0.1,0.1
		c-0.2,0.2-0.4,0.5-0.1,0.6h0.2c0,0.2,0.2,0.5,0.6,0.2c-0.1,0-0.2-0.1-0.2-0.2l0.2-0.2c0.3-0.6-0.2-0.6-0.1-0.8c0-0.2,0.5,0,0.7-0.6
		c0-0.1,0-0.2-0.1-0.4h-0.1c0.2,0,0.4,0,0.5-0.2c-0.4,0-0.1-0.4-0.1-0.5v-0.1c0.1-0.1,0.4-0.2,0.4-0.6c-0.2,0.1-0.7,0.4-0.7,0
		c0,0,0.1-0.2-0.4-0.2c-0.7,0-1.7,0-3-0.2c-0.1,0-0.1,0,0,0c1.3-0.1,4-0.4,4-1.2c0-0.7-0.1-1.2-2.4-1.2c-2.3,0-7.5,1-7.5-0.4
		C212.9,221.2,213.9,221.3,215,221.6 M207.6,221.2c-0.3,0.2-0.5,0.4-0.6,0.2c-0.2-0.2,0-0.4-0.2-0.7
		C207,221,207.3,221.2,207.6,221.2 M207.9,222.7c0,0,0-0.2-0.1-0.2s-0.1,0-0.1,0.2c-0.1-0.1-0.3-0.1-0.4,0c-0.1,0.2-0.1,0.2,0,0.4
		c0.1,0.1,0,0.2,0,0.4c-0.1,0.2-0.4,0.4-0.6,0.2c-0.2-0.1-0.1-0.4-0.1-0.5c0.1-0.2,0.1-0.4,0.2-0.4c0.1,0.1,0.2,0,0.4-0.1
		c0-0.3-0.1-0.3-0.4-0.4c0.2-0.1,0.2-0.1,0.2-0.2c-0.1-0.1-0.2,0.1-0.4,0c0-0.1,0.1-0.1,0.1-0.2h0.2l0.8,0.4c0,0.1,0.1,0.1,0.1,0.2
		C208.1,222.4,208.1,222.7,207.9,222.7 M208.5,222.2c-0.4-0.1-0.4-0.4-0.4-0.6c0.1,0,0.6,0.2,0.8,0.4
		C208.6,222,208.7,222.2,208.5,222.2 M226,215.4v-0.1c0.2-0.2,0.2-0.4,0.2-0.6c-0.1,0.1-0.6,0.4-0.7,0c0,0,0-0.4-0.4-0.2
		c-0.7,0.1-1.5-0.1-2.9-0.2c-0.1,0-0.1,0,0-0.1c1.5-0.1,4-0.2,4-1.2c0-0.7-0.8-1.2-3.3-1.2s-9.9,1-9.9-0.5c0-0.8,2.4-0.5,4.4-0.4
		c0.1,0.1,0.2,0.2,0.5,0.2c3.1,1,6.8-1.5,8.7-0.8c-2.5-0.8-4.1,0.6-6.4,0.1c1.3,0,2.9-0.4,2.9-0.7c-1.1,0.7-4.1-0.5-5.4,0.4
		c0,0-0.1,0.1-0.3,0.1c-2.3,0-5.1-0.2-5.1,1.1c0,2.4,8.6,1.1,10.6,1.1c1.9,0,2.4,0.1,2.4,0.6c0,0.6-2.1,0.7-3.1,0.7
		c-1.9,0-9.9-1.1-13.1-0.1c0.1-0.6,1-1.3,0.5-1.8c0.4-0.1,0.6-0.4,0.6-0.6c-0.2-0.1-0.4-0.2-0.6-0.2c0.1-0.1,0-0.4-0.1-0.5
		c-0.1,0-0.1-0.4-0.2-0.4c-0.2-0.2-0.5-0.4-0.7-0.5c-0.4-0.2-0.6-0.1-0.7-0.2l-0.4,0.1c-0.2,0-0.5,0-0.5,0.1
		c-0.1-0.1-0.4-0.2-0.5-0.2c-0.1,0.2-0.2,0.5-0.1,0.8c-0.2,0-0.6,0.8-0.8,0.7c0.1,0.2,0.1,0.2,0.2,0.2c-0.2,0.5-0.4,1-0.6,1.1
		c0.1,0.1,0.2,0.2,0.4,0.2v0.8l-0.5-0.2h-0.4c-0.1,0-0.2,0-0.4-0.1c-0.4,0-0.7-0.6-1.3-1c-0.5-0.2-0.5-0.5-0.5-1.1
		c0-0.4,0.1-0.7,0.1-1.1c0-0.1,0-0.4-0.1-0.4c0-0.4-0.4-0.5-0.6-0.5c0.1,0.1,0.2,0.1,0.2,0.5c-0.1,0-0.2,0.1-0.2,0.1
		c0,0.1-0.1,0.4,0,0.5c0.1,0,0.1,0,0.1,0.1l-0.1,0.1c0,0.1,0,0,0,0c-0.1-0.2-0.2-0.7-0.5-0.7h-0.2v-0.1c0-0.2-0.4-0.5-0.7-0.1
		c0.1,0,0.2,0,0.4,0.1c0,0.1-0.1,0.2-0.1,0.4c0,0.2,0.3,0.4,0.6,0.4v0.1c0.1,0,0.1,0,0.1,0.1h-0.1c-0.5-0.2-0.7,0-0.7,0.2v0.2
		c-0.3,0.1-0.3,0.5,0.1,0.6c0,0,0-0.2,0.1-0.2h0.1c0,0,0.1,0,0.1,0.1c0,0,0.1,0,0.2-0.1c0.1,0,0.1-0.1,0.2,0h0.1v0.1
		c-0.4,0.4-0.4,0.7,0.1,0.8c0.1,0,0.1,0,0.1,0.1c0,0.7-1,0.5-0.8-0.1c-0.6,0.7,0.4,1.3,1,1h0.1c0,0.1,0.1,0.2,0.2,0.2
		c0,0,0-0.1,0.1-0.1v0.1c0.1,0.1,0.1,0.4,0.4,0.4c0-0.1,0-0.2,0.1-0.2c0.1,0,0.6,1,1.6,1.6c-0.1-0.1,0.4-0.2,0.6-0.4
		c0,0.2,0.1,0.4,0.4,0.5l0.1-0.1c-0.1,0.5,0.5,1,0.4,1c-0.1,0-1.1-0.1-1.3,0c-0.5,0.2-1.7,0.6-1.9,0.2c-0.1-0.2-0.1-0.4-0.2-0.6
		c-0.1-0.1-0.2-0.2-0.4-0.2l-0.2-0.1c-0.3-0.1-0.6-0.1-0.8,0c0.2,0,0.4,0,0.5,0.2c0,0.1-0.1,0.2-0.1,0.2c-0.1,0.1,0,0.4,0.7,0.6v0.1
		c-0.1,0.1-0.2,0.1-0.4,0c-0.4-0.2-0.4-0.5-0.7-0.4c0,0-0.1,0.1-0.2,0.1c-0.4,0-0.8,0.4-0.6,0.7c0-0.1,0.1-0.4,0.4-0.4
		c0,0.1,0.1,0.1,0.1,0.2c0,0.4,0.2,0.6,1,0.1v0.1c-0.1,0.2-0.6,0.6-0.2,0.8c0,0,0.1,0,0.1,0.1c-0.1,0.5,0.4,0.7,0.6,0.7
		c-0.1-0.1-0.2-0.2-0.2-0.6h0.2c0.4-0.1,0.2-0.5,0.4-0.6c0.1-0.1,0.1,0,0.1,0c0,0.1,0.1,0.6,0.5,0.5c0.5,0,0.6-0.4,0.6-0.6
		c0.2,0.1,0.2,0.2,0.2,0.5c0.1,0,0.3-0.1,0.4-0.4c0,0.2,0,0.5-0.2,0.8c0.2-0.1,0.6-0.4,0.7-0.7c0.1,0,0.1,0.1,0.1,0.1h0.1
		c0.1,0.1,0.4,0.1,0.7,0h0.1v0.5c0.1-0.1,0.1-0.2,0.2-0.2c0.1,0,0,0.5,0.2,0.7c0.1-1.1,0.6-0.7,1.3-1.1c0.1-0.1,0.1,0,0.1,0
		l-0.4,0.4c0.2,0.2,1.2-0.5,1.2-0.8c0-0.1,0.4-0.1,0.7-0.1c0.7,0,0.6-0.6,0.8-0.6c4.1,0.6,1.7-1.7,6.4-1.2c0.2,0,0.4-0.2,0.6-0.4
		c-0.2,0.4-0.2,1.3,0.1,1.4c0.2,0,0.7,0.1,0.8,0.3c0.1,0.1,0,0.1,0,0.1c-0.2,0-0.6,0.1-0.6,0.1c-0.7,0.5-0.8-1-1.6-0.7l-0.2,0.1
		c-0.2,0-0.7,0.4-0.6,0.7c0.1-0.2,0.3-0.3,0.5-0.4v0.2c0,0.1,0,0.2,0.2,0.2c0.1,0,0.2-0.1,0.4-0.1v0.1c0,0.2-1-0.1-0.7,0.6l0.1,0.2
		c0,0.2,0.1,0.5,0.6,0.4c0,0-0.3-0.1-0.3-0.2h0.3c0,0,0.1,0,0.1-0.1c0,0,0-0.1,0,0h0.1c0,0-0.1,0.1,0,0.1v0.4c0,0.2,0.4,0.6,0.8,0.2
		c-0.1,0-0.4,0-0.5-0.1c0.1-0.1,0.2-0.1,0.2-0.1c0-0.1,0.1-0.2,0.1-0.4h0.3c0.1-0.1,0.1,0,0.1,0c0.1,0.2,0.4,0.4,0.6,0.2
		c0.5-0.1,0.1-0.6,0.5-0.7h0.4c0.4,0.1,1,0.1,1.1-0.1c0.1-0.1,0.1-0.8-0.4-1.1c-0.3-0.1,0-0.5-0.3-0.8c0.5,0.1,1,0.4,1.6,0.4
		c1.1,0,1.5-0.1,1.9-0.5c0.6-0.4,1.2-0.1,1.4-0.1c0.1,0,0.3,0,0.1,0.2c-0.1,0.6,0,0.6-0.1,1c-0.1,0.1-0.6,0-1,0
		c-0.1,0-0.2,0.1-0.4,0.1c-0.2,0-0.6,0.3-0.6,0.6c0.1,0,0.4-0.2,0.5-0.2v0.1c0,0.4,0.5,0.5,0.7,0.2c0,0,0.1,0,0.1,0.1
		c-0.2,0.1-0.7,0.5-0.4,0.6l0.1,0.1c0,0.3,0.1,0.5,0.4,0.6c0-0.1,0-0.2,0.1-0.5h0.1c0.3,0,0.3-0.5,0.5-0.7c0,0,0.1,0,0,0.1
		c0,0.2-0.1,0.6,0.1,0.7h0.1c0.1,0.2,0.4,0.4,0.7,0.2c-0.1-0.1-0.2-0.1-0.2-0.2c0-0.1,0.1-0.2,0.1-0.4c0.2-0.6-0.2-0.6-0.2-0.8
		c0.1-0.2,0.6,0,0.6-0.7c0.1,0,0-0.2-0.1-0.2v-0.1c0.1,0,0.2,0.1,0.4-0.1c-0.4,0-0.2-0.4-0.2-0.6 M208.2,210.8
		c0.1,0.1,0.7,0.4,1,0.4c-0.5,0.1-0.4,0.2-0.6,0.2C208.2,211.4,208.2,211.1,208.2,210.8 M207.6,210.4c-0.1,0.4-0.4,0.5-0.6,0.2
		c-0.2-0.2,0-0.2-0.2-0.6C207,210.2,207.5,210.5,207.6,210.4 M206.8,212.5c0-0.1,0.1-0.4,0.2-0.4c0.1,0,0.2,0,0.4-0.1
		c0-0.2-0.1-0.4-0.4-0.4c0.2-0.1,0.4-0.2,0.2-0.2c-0.1-0.1-0.4,0-0.4,0c0-0.1,0.1-0.2,0.1-0.2h0.2l0.8,0.4c0,0,0.1,0.1,0.1,0.2
		c0,0,0,0.2-0.1,0.2c0,0,0-0.2-0.1-0.2c-0.1-0.1-0.1,0.1-0.1,0.2c-0.1,0-0.4-0.1-0.4,0c-0.1,0.2-0.1,0.2,0,0.4c0.1,0.1,0,0.2,0,0.5
		c-0.1,0.1-0.4,0.4-0.6,0.2C206.7,213,206.7,212.6,206.8,212.5 M206.2,211.4h-0.1H206.2z M191.2,196.5c0-0.7-0.7-1.2-3.3-1.2
		c-2.4,0-9.9,1-9.9-0.5c0-0.8,2.5-0.5,4.4-0.5c0.1,0.2,0.4,0.4,0.6,0.4c3.1,0.8,6.4-1.2,8.7-0.5c-1.8-1.6-4.1,0.2-6.5-0.2
		c1.5,0,2.9-0.4,3-0.7c-1.1,0.7-4.2-0.5-5.4,0.4c-0.1,0-0.2,0.1-0.2,0.1c-2.3,0-5.2-0.2-5.2,1.1c0,2.4,8.6,1.1,10.6,1.1
		c2.1,0,2.5,0.1,2.5,0.5c0,0.6-2.1,0.7-3.3,0.7c-1.9,0-9.9-1-13.1,0c0.2-0.6,1-1.3,0.6-1.8c0.4-0.1,0.5-0.4,0.5-0.6
		c-0.2-0.2-0.4-0.2-0.6-0.2c0.1-0.2,0-0.4-0.1-0.5l-0.1-0.4c-0.2-0.2-0.5-0.4-0.7-0.6c-0.4-0.1-0.6-0.1-0.7-0.1h-0.5
		c-0.1,0-0.4,0-0.4,0.2c-0.2-0.2-0.4-0.2-0.6-0.2c-0.1,0.2-0.1,0.5,0,0.8c-0.4,0-0.6,0.7-1,0.7c0.1,0.2,0.2,0.2,0.4,0.2
		c-0.2,0.5-0.4,1-0.6,1.1c0,0.1,0.1,0.1,0.2,0.2c-0.1,0.2-0.1,0.5-0.1,0.7l-0.2-0.1h-0.4c-0.1,0-0.2-0.1-0.5-0.1
		c-0.4,0-0.6-0.6-1.3-1c-0.4-0.4-0.5-0.5-0.5-1.1c0-0.4,0.3-0.7,0.3-1.2c0,0-0.1-0.2-0.1-0.4c-0.1-0.2-0.5-0.5-0.7-0.4
		c0.1,0,0.3,0.1,0.3,0.4c0,0.1-0.1,0.2-0.1,0.2c-0.1,0.1-0.1,0.4,0,0.5v0.2c0,0.1,0,0,0,0c-0.1-0.2-0.3-0.7-0.6-0.7
		c0,0-0.1-0.1-0.1,0v-0.1c0-0.2-0.4-0.5-0.7-0.1c0.1,0,0.2,0,0.2,0.1v0.2c-0.1,0.4,0.1,0.5,0.5,0.5c0.1,0,0.1,0,0.1,0.1v0.1
		c0.1,0,0,0,0,0c-0.6-0.2-0.8,0-0.8,0.2v0.2c-0.1,0.1-0.2,0.5,0.1,0.6c0,0,0-0.2,0.1-0.2c0.1,0,0.1,0,0.1-0.1c0,0.1,0.1,0.1,0.1,0.2
		c0.1,0,0.3,0,0.4-0.1c0-0.1,0.1-0.1,0.1,0h0.1c0.1,0.1,0.1,0.1,0,0.1c-0.4,0.4-0.2,0.7,0.2,0.8v0.1c0,0.6-0.8,0.5-0.8-0.1
		c-0.5,0.7,0.4,1.3,1.1,1c0.1,0.1,0.1,0.2,0.2,0.2c0,0,0.1-0.1,0.3-0.1c0,0.2,0.1,0.5,0.4,0.5c-0.1-0.1,0-0.2,0-0.2
		c0.1,0,0.6,1,1.7,1.4c0.1,0,0.5,0,0.5-0.2l0.2,0.2c0,0.4,0.4,1,0.2,1s-1.7-0.1-2.1,0.1c-0.4,0.2-1.6,0.6-1.8,0.2
		c-0.1-0.2-0.1-0.4-0.3-0.6c-0.1-0.2-0.2-0.2-0.4-0.4h-0.4c-0.1-0.1-0.5-0.1-0.7,0c0.1,0,0.4,0,0.5,0.2c-0.1,0.1-0.1,0.2-0.1,0.2
		c-0.1,0.1-0.1,0.4,0.6,0.6c0.1,0,0.1,0.1,0.1,0.1c-0.1,0-0.2,0.1-0.5,0c-0.2-0.2-0.2-0.6-0.6-0.4c0,0-0.1,0-0.2,0.1h-0.1
		c-0.2-0.1-0.7,0.4-0.5,0.7c0-0.1,0.1-0.4,0.4-0.4v0.2c0.1,0.4,0.2,0.6,1.1,0.1c-0.1,0.4-0.7,0.7-0.3,1l0.1,0.1
		c-0.1,0.5,0.4,0.7,0.6,0.7c-0.2-0.2-0.2-0.4-0.3-0.6h0.3c0.4-0.1,0.1-0.5,0.4-0.6c0.1-0.1,0.1,0,0.1,0c0,0.1,0.1,0.6,0.5,0.5
		c0.5,0,0.6-0.4,0.6-0.6c0.1,0.1,0.2,0.2,0.2,0.5c0.1,0,0.2-0.1,0.2-0.4c0.1,0.2,0.1,0.5-0.1,0.7c0.1,0,0.6-0.2,0.7-0.7
		c0,0.1,0.1,0.2,0.1,0.2c0.3,0.1,0.5,0.1,0.8,0h0.1c-0.1,0.2-0.1,0.4,0,0.5c0-0.1,0.1-0.2,0.2-0.2c0.1,0,0,0.5,0.2,0.7
		c0-1.1,1.3-0.6,1.9-1c0.1-0.1,0.1-0.1,0.1,0s-0.1,0.2-0.2,0.4c0.1,0,0.6-0.1,0.8-0.4c0,0-0.1,0-0.1,0.1l1.1-0.5
		c0.1-0.1,0.1-0.2,0.1-0.4c0.1-0.1,0.2-0.1,0.4-0.1c0.7,0.1,0.6-0.5,0.8-0.5c4,0.6,1.7-1.7,6.4-1.2c0.2,0,0.4-0.1,0.5-0.2
		c-0.2,0.4-0.2,1.2,0.3,1.2c0.2,0.1,0.7,0.2,0.8,0.4v0.1c-0.4,0-0.6,0.1-0.7,0.1c-0.7,0.5-0.7-1.1-1.6-0.7l-0.1,0.1
		c-0.4,0-0.7,0.4-0.7,0.7c0.1-0.1,0.4-0.4,0.5-0.4v0.2c0,0.1,0.1,0.2,0.4,0.2c0.1,0,0.1-0.1,0.2-0.1c0.1,0,0.1,0,0.1,0.1
		c0,0.2-1-0.2-0.7,0.6c0,0,0,0.2,0.1,0.2c-0.1,0.2,0.1,0.5,0.6,0.4c-0.1,0-0.3-0.1-0.3-0.2h0.3v-0.1c0,0,0-0.1,0.1-0.1
		c0,0.1,0.1,0.1,0.1,0.1l-0.1,0.1c0,0.1,0,0.2,0.1,0.4c-0.1,0.2,0.4,0.6,0.7,0.2c-0.1,0-0.4,0-0.4-0.2h0.3v-0.4h0.1
		c0,0,0.1,0,0.2-0.1l0.1,0.1c0,0.2,0.2,0.4,0.6,0.2c0.5-0.1,0-0.6,0.5-0.7h0.2c0.5,0.1,1.1,0.1,1.2-0.1c0-0.1,0-1-0.5-1.2
		c-0.2-0.1,0.1-0.4-0.1-0.7c0.4,0.1,0.8,0.4,1.5,0.4c1.2,0,1.5-0.2,1.9-0.5c0.6-0.4,1.2-0.2,1.3-0.1c0.1,0,0.2,0,0.2,0.2
		c-0.1,0.6,0.1,0.6-0.1,0.8c0,0.2-0.6,0.1-0.8,0.1c-0.2-0.1-0.4,0.1-0.4,0.1c-0.3,0-0.6,0.2-0.6,0.6c0,0,0,0,0,0.1
		c0.1-0.1,0.2-0.2,0.5-0.2v0.1c0.1,0.4,0.5,0.5,0.7,0.2c0.1,0,0.1,0,0.1,0.1c-0.2,0.1-0.6,0.5-0.2,0.6l0.1,0.1
		c0,0.2,0.1,0.5,0.4,0.6c0-0.1-0.1-0.2,0.1-0.5h0.1c0.2,0,0.1-0.5,0.4-0.7h0.1c-0.1,0.4-0.1,0.7,0.1,0.7l0.1,0.1
		c0.1,0.2,0.4,0.4,0.7,0.1c-0.1,0-0.2-0.1-0.2-0.2l0.1-0.2c0.2-0.6-0.4-0.6-0.4-0.8c0-0.2,0.6-0.1,0.6-0.7c0,0,0-0.2-0.2-0.4
		c0.1,0,0.4,0,0.4-0.1c-0.4,0-0.2-0.4-0.4-0.6c0-0.1,0-0.1,0.1-0.1c0.1-0.1,0.2-0.4,0.1-0.6c-0.1,0.1-0.6,0.4-0.6,0
		c-0.1,0-0.1-0.4-0.5-0.2c-0.8,0-1.3-0.1-2.7-0.2C188.7,197.8,191.2,197.5,191.2,196.5 M173.5,194.6c0.1,0.1,0.6,0.2,1,0.4
		c-0.5,0.1-0.4,0.2-0.7,0.2C173.5,195.2,173.3,194.9,173.5,194.6 M172.8,194.3c-0.1,0.2-0.4,0.5-0.6,0.2c-0.2-0.2,0-0.2-0.2-0.7
		C172.2,194,172.5,194.2,172.8,194.3 M171.9,196.2l0.2-0.2c0.2,0,0.2,0,0.4-0.1c0.1-0.2-0.1-0.4-0.2-0.5c0.1,0,0.2-0.1,0.1-0.2
		c-0.1,0-0.2,0.1-0.4,0c0,0,0.1-0.1,0.2-0.1c0-0.1,0.1-0.1,0.2,0l0.7,0.4c0.1,0,0.1,0,0.1,0.1s0.1,0.2,0,0.4c-0.1,0-0.1-0.4-0.2-0.4
		c-0.1,0-0.1,0.1,0,0.4c-0.1-0.1-0.4-0.2-0.5,0c-0.1,0.1,0,0.2,0.1,0.4c0,0.1,0,0.2-0.1,0.4c0,0.2-0.2,0.5-0.5,0.2
		C171.8,196.7,171.9,196.4,171.9,196.2 M192.4,185.3c0-0.7-1-1.2-3.5-1.2c-2.5,0-8.3,0.8-8.3-0.6c0-0.6,1.2-0.6,2.5-0.5
		c0.1,0.1,0.2,0.2,0.6,0.2c3.3,1,7.1-0.7,9.2-0.1c-2.4-1.8-4.4,0-6.9-0.6c1.4,0,1.9-0.4,2.1-0.7c-1.2,0.7-3.3-0.4-4.6,0.4
		c-0.1,0.1-0.3,0.1-0.3,0.2c-1.9,0-3.4,0-3.4,1.1c0,2.7,6.9,1.1,9.1,1.1c2.2,0,2.7,0.2,2.7,0.6c0,0.7-2.2,0.8-3.4,0.8
		c-1.8,0-7.5-1-10.9-0.4c0.2-0.5,0.8-1.2,0.5-1.6c0.4-0.2,0.6-0.5,0.6-0.7c-0.2-0.1-0.5-0.2-0.6-0.2c0-0.1-0.1-0.4-0.2-0.5
		c0,0,0-0.4-0.1-0.5c-0.1,0-0.4-0.2-0.7-0.5c-0.4-0.1-0.6-0.1-0.8-0.1c0-0.1-0.4,0-0.4,0c-0.2,0-0.5,0-0.5,0.2
		c-0.1-0.2-0.4-0.2-0.6-0.2c-0.1,0.2-0.1,0.5-0.1,0.8c-0.3,0-0.6,0.8-0.8,0.7c0.1,0.2,0.1,0.2,0.2,0.4c-0.2,0.4-0.4,1-0.6,1
		c0.1,0.2,0.3,0.4,0.4,0.4v1l-0.6-0.1c0,0-0.1,0-0.1-0.1h-0.2h0.2l-0.4-0.1c-0.3-0.4-0.7-0.7-1.1-1c-0.5-0.2-0.5-0.5-0.5-1
		c0.1-0.5,0.3-1,0.3-1.3c0,0,0-0.2-0.1-0.4c0-0.2-0.4-0.5-0.6-0.5c0.1,0.1,0.2,0.2,0.2,0.5c-0.1,0.1-0.1,0.2-0.2,0.2
		c0,0.1-0.1,0.2,0,0.5h0.1c0,0.1,0,0.1-0.1,0.2c0,0.1,0,0,0,0c-0.1-0.4-0.2-0.8-0.5-0.8h-0.3c0-0.4-0.4-0.6-0.7-0.2l0.2,0.1v0.4
		c-0.1,0.4,0.1,0.5,0.5,0.5c0.1,0,0.1,0,0.1,0.1v0.1c-0.6-0.2-0.8,0-0.8,0.2c0,0-0.1,0.2,0,0.2c-0.2,0.1-0.4,0.5,0,0.7
		c0-0.1,0-0.4,0.2-0.4v-0.1c0.1,0.1,0.1,0.2,0.2,0.2c0,0,0.1,0,0.2-0.1c0.1-0.1,0.1-0.1,0.1,0c0.1,0,0.1,0,0.3,0.1v0.1
		c-0.5,0.4-0.4,0.7,0.1,0.8h0.1c-0.1,0.8-1.1,0.6-1-0.1c-0.6,0.8,0.4,1.4,1.1,1.1c0.1,0.1,0.1,0.2,0.3,0.2c0,0,0.1-0.1,0.2-0.1v0.1
		c0,0.1,0,0.4,0.2,0.4c0-0.1,0.1-0.2,0.1-0.2c0.1,0,0.5,0.6,1.1,1c0.5,0.1,0.8,0.6,1.1,0.4c0,0.5,0.4,1.1,0.4,1.1
		c-0.3,0-1.6-0.1-1.8,0c-0.5,0.2-1.7,0.7-2.1,0.2c-0.1-0.1-0.1-0.4-0.2-0.6c-0.1-0.1-0.3-0.2-0.4-0.2H169c-0.2-0.2-0.7-0.2-0.8-0.1
		c0.1,0,0.4,0,0.5,0.2c-0.1,0.1-0.1,0.2-0.1,0.2c-0.1,0.1-0.1,0.5,0.7,0.7v0.1c-0.1,0-0.3,0-0.5-0.1c-0.2-0.2-0.2-0.5-0.6-0.4
		c0,0-0.1,0.1-0.2,0.1h-0.1c-0.4,0-0.8,0.4-0.6,0.7c0,0,0.1-0.2,0.4-0.2c0.1,0,0.1,0.1,0.1,0.2c0.1,0.4,0.2,0.6,1.1,0.1
		c0-0.1,0,0,0,0c-0.2,0.4-0.7,0.6-0.2,1l0.1,0.1c-0.1,0.5,0.4,0.8,0.6,0.8c-0.2-0.2-0.3-0.5-0.3-0.7c0.1,0.1,0.3,0.1,0.3,0.1
		c0.4-0.2,0.2-0.6,0.4-0.7c0.1-0.1,0.1-0.1,0.1,0c0.1,0.2,0.1,0.6,0.6,0.6c0.4-0.1,0.6-0.4,0.6-0.7c0.1,0.1,0.2,0.2,0.2,0.5
		c0.1,0,0.2-0.1,0.4-0.4c0,0.2,0.1,0.5-0.2,0.8c0.1-0.1,0.6-0.4,0.7-0.8c0.1,0.1,0.1,0.2,0.3,0.4v-0.1c0.1,0.1,0.4,0.1,0.8,0
		c0.1,0,0.1,0,0.1,0.1c-0.1,0.1-0.1,0.4,0,0.4c0,0,0.1-0.2,0.2-0.2c0.1,0-0.1,0.5,0.3,0.7c0-1.1,0.7-0.7,1.3-1.1
		c0.1-0.1,0.1-0.1,0.1,0c0,0.1-0.1,0.2-0.3,0.4c0.7,0.2,1.9-1,2.2-1.4c0.3-0.1,0.6-0.1,0.7-0.1c2.3,0.2,0.7-2.1,4.3-1.5
		c0.2,0.1,0.6-0.1,0.8-0.4c-0.2,0.5-0.2,1.4,0.3,1.6c0.3,0,0.6,0.1,0.8,0.4c0,0,0,0.1-0.1,0.1c-0.2,0-0.5,0.1-0.6,0.1
		c-0.8,0.5-0.8-1.1-1.7-0.8c0,0-0.1,0.1-0.2,0.1c-0.2,0-0.7,0.5-0.6,0.7c0.1,0,0.2-0.2,0.5-0.2v0.2c0,0,0,0.2,0.4,0.2
		c0.1,0,0.1-0.1,0.3-0.1c0.1,0,0.1,0,0.1,0.1c0,0.2-1-0.2-0.8,0.6c0,0.1,0.1,0.2,0.1,0.2c0,0.4,0.3,0.6,0.7,0.4
		c-0.1,0-0.3-0.1-0.3-0.2h0.3l0.1-0.1h0.1c0,0.1-0.1,0.1-0.1,0.2l0.1,0.2c-0.1,0.2,0.4,0.6,0.8,0.4c-0.1-0.1-0.4-0.1-0.5-0.2
		c0.1,0,0.2-0.1,0.2-0.1s0.1-0.1,0.1-0.4h0.5c0,0.2,0.3,0.4,0.6,0.2c0.5-0.1,0-0.6,0.5-0.7h0.4c0.4,0.1,1.1,0.1,1.2-0.1
		c0-0.2,0-1-0.5-1.2c-0.2-0.1,0-0.5-0.2-0.8c0.5,0.1,1,0.4,1.6,0.4c1.2,0,1.6-0.1,2.1-0.5c0.4-0.3,1-0.3,1.5-0.1
		c0.1,0,0.2,0.1,0.1,0.2c-0.1,0.6,0.1,0.7,0,1c-0.1,0.2-0.6,0-1,0c-0.2,0-0.4,0.1-0.4,0.2c-0.3,0-0.6,0.2-0.6,0.6
		c0.1-0.1,0.2-0.2,0.5-0.2v0.1c0.1,0.4,0.6,0.5,0.8,0.2c0,0,0.1,0,0,0.1c-0.2,0.1-0.6,0.5-0.2,0.6c0,0.1,0.1,0.1,0.2,0.2
		c-0.1,0.2,0.1,0.5,0.4,0.5c-0.1-0.1-0.1-0.2,0-0.5h0.2c0.3,0,0.1-0.5,0.4-0.7h0.1c-0.1,0.4-0.2,0.7,0.1,0.8h0.1
		c0.1,0.2,0.4,0.4,0.7,0.2c0,0-0.2-0.1-0.2-0.2c0-0.1,0.1-0.2,0.1-0.4c0.2-0.6-0.4-0.6-0.4-0.8c0-0.2,0.6-0.1,0.6-0.7
		c0-0.1,0-0.4-0.2-0.4v-0.1c0.1,0,0.4,0.1,0.5-0.1c-0.5,0-0.4-0.4-0.5-0.6c0-0.1,0-0.1,0.1-0.1c0.2-0.2,0.3-0.5,0.2-0.7
		c-0.2,0.2-0.7,0.5-0.8,0c0,0,0-0.2-0.4-0.1c-0.8,0-1.3-0.1-2.9-0.2C189.9,186.8,192.4,186.3,192.4,185.3 M172.4,186.9v-0.1V186.9
		 M176.5,183.2c0,0.1,0.7,0.4,1,0.4c-0.5,0.1-0.4,0.4-0.6,0.4C176.5,183.8,176.4,183.4,176.5,183.2 M175.9,183
		c-0.1,0.1-0.5,0.4-0.7,0.1c-0.1-0.1,0-0.2-0.2-0.7C175.1,182.6,175.6,182.8,175.9,183 M174.9,185c0-0.2,0.1-0.4,0.2-0.4
		c0.1,0,0.3,0,0.4-0.2c0-0.1-0.1-0.2-0.4-0.4c0.3-0.1,0.4-0.1,0.3-0.2c-0.1-0.1-0.4,0.1-0.4,0s0.1-0.1,0.1-0.2h0.4l0.7,0.4
		c0.1,0.1,0.1,0.1,0.1,0.2c0,0.1,0.1,0.2,0,0.2c-0.1,0.1-0.1-0.2-0.2-0.2c-0.1,0-0.1,0.1,0,0.4c-0.2-0.1-0.4-0.2-0.5,0
		c-0.1,0.1,0,0.2,0,0.4c0.1,0.1,0,0.2,0,0.4c-0.1,0.2-0.4,0.5-0.6,0.4C174.8,185.5,174.8,185.1,174.9,185 M177,189.5v-0.1V189.5
		 M188.8,175.5c2.7,0.1,3.9-0.8,3.9-1.6c0-2.9-7.1-1.1-7.1-2.9c0-0.4,0.2-0.6,0.5-0.8h0.1c3.6-0.2,3.6-2.8,6.3-3.3
		c-3.1-0.5-3.6,2.1-5,2.1c0.7-0.2,1-1.1,1-1.4c-0.6,0.8-2.1,1-2.9,1.9c0,0.1-0.1,0.4-0.1,0.5c-0.4,0.2-0.7,0.6-0.7,1.1
		c0,2.7,7.4,0.8,7.4,2.8c0,0.7-1.3,1.2-3.3,1.2c-1.6,0-2.7-1.1-5.4-0.4c0-0.5,1-1.3,0.6-1.8c0.2-0.1,0.5-0.2,0.5-0.5
		c-0.2-0.2-0.4-0.2-0.6-0.2c0.1-0.1,0-0.4-0.1-0.5c0,0,0-0.2-0.1-0.4c-0.1,0-0.4-0.2-0.7-0.4c-0.3-0.2-0.5-0.2-0.6-0.2l-0.4,0.1
		c-0.2-0.1-0.4-0.1-0.4,0.1c-0.1-0.1-0.4-0.2-0.5-0.2c-0.1,0.2-0.2,0.5-0.1,0.8c-0.2,0-0.6,0.6-0.8,0.6l0.2,0.2
		c-0.1,0.4-0.2,0.8-0.5,0.8c0.1,0.1,0.1,0.2,0.2,0.2c-0.2,0.6-0.4,1.3-0.5,1.7c-0.1-0.1-0.2-0.4-0.6-0.5c-0.4-0.2-0.4-0.5-0.2-0.8
		c0-0.4,0.2-0.7,0.2-1.1v-0.2c0-0.2-0.4-0.5-0.6-0.4c0.1,0,0.3,0.1,0.3,0.4c-0.1,0-0.3,0.1-0.3,0.1c-0.1,0.1-0.1,0.2,0,0.4v0.2
		c-0.1,0.1-0.1,0-0.1,0c0-0.2-0.1-0.6-0.4-0.6h-0.2v-0.1c0.1-0.2-0.2-0.5-0.6-0.1c0.1,0,0.3,0,0.3,0.1c0,0.1-0.1,0.2-0.1,0.2
		c0,0.2,0.1,0.4,0.5,0.4c0.1,0,0.1,0.1,0.1,0.1v0.1c-0.6-0.2-0.8,0-0.8,0.2v0.1c-0.2,0.1-0.4,0.4,0,0.6c0-0.1,0-0.2,0.1-0.4h0.1
		c0,0.1,0.1,0.1,0.1,0.1h0.4c0-0.1,0-0.1,0.1,0h0.1v0.1c-0.5,0.2-0.5,0.6,0,0.7c0.1,0,0.1,0,0.1,0.1c-0.1,0.5-1,0.4-0.8-0.1
		c-0.6,0.6,0.1,1.1,0.8,0.7c0,0,0.1,0,0.1,0.1c0,0.1,0,0.1,0.1,0.1l0.1-0.1c0.1,0,0.1,0.1,0.1,0.1c0,0.1,0,0.4,0.3,0.4
		c0-0.1,0-0.2,0.1-0.2s0.2,0.5,0.6,1c-0.5,0.2-1,0.4-1.6,0.5c-0.1,0-1-0.1-1.3,0c-0.4,0.2-1.4,0.6-1.7,0.2c-0.1-0.1-0.1-0.4-0.1-0.6
		c-0.1-0.1-0.3-0.2-0.4-0.2h-0.2c-0.2-0.1-0.6-0.1-0.7,0c0.1,0,0.2,0,0.4,0.2l-0.1,0.1c0,0.1,0,0.4,0.7,0.6v0.1
		c-0.1,0-0.3,0.1-0.4,0c-0.2-0.2-0.4-0.6-0.6-0.4c0,0-0.1,0.1-0.2,0.1c-0.4,0-0.7,0.3-0.6,0.6c0.1-0.1,0.1-0.2,0.4-0.2
		c0.1,0,0.1,0.1,0.1,0.1c0,0.4,0.1,0.6,0.8,0.1v0.1c-0.1,0.2-0.6,0.6-0.3,0.7l0.1,0.1v0.1c0,0.4,0.4,0.6,0.6,0.6
		c-0.1-0.1-0.2-0.2-0.2-0.6c0.1,0.1,0.2,0.1,0.2,0.1c0.2-0.1,0.1-0.5,0.4-0.6c0-0.1,0,0,0,0c0.1,0.1,0.1,0.5,0.5,0.5
		c0.4,0,0.6-0.4,0.6-0.5v-0.1c0.1,0.1,0.2,0.2,0.1,0.5c0.1-0.1,0.2-0.1,0.4-0.4c0,0.2,0,0.5-0.3,0.7c0.3-0.1,0.6-0.2,0.7-0.7
		c0,0.1,0.1,0.2,0.1,0.2c0.1,0,0.4,0.1,0.7,0h0.1c-0.1,0.1-0.1,0.4,0,0.4l0.1-0.1c0.1,0,0,0.4,0.2,0.6c0.1-1,0.6-0.6,1.2-1
		c0.1-0.1,0.1-0.1,0.1,0c0,0.1-0.1,0.2-0.3,0.4c0.2,0,0.7-0.2,0.7-0.6c0-0.1,0.1-0.2,0.4-0.4c0.2,0,0.6-0.1,0.7-0.4
		c0,0.1,0.1,0.5,0,0.5c0.6,0.1,1.3-0.6,1.6-0.7c1.3-0.2-1-1.2,1.9-1.1c0.2,0,0.6-0.1,0.7-0.2c-0.1,0.4-0.1,1.2,0.2,1.3
		c0.3,0,0.6,0.1,0.7,0.2v0.1c-0.3,0-0.5,0-0.6,0.1c-0.7,0.5-0.7-1-1.4-0.7l-0.1,0.1c-0.3,0-0.6,0.4-0.6,0.6c0.1,0,0.2-0.2,0.5-0.2
		v0.1c0,0.1,0,0.2,0.2,0.2h0.4c0,0.4-0.8-0.1-0.7,0.6c0,0,0.1,0.1,0.1,0.2c0,0.2,0.1,0.5,0.6,0.2c-0.1,0-0.2-0.1-0.2-0.2
		c0.1,0,0.1,0,0.2,0.1v-0.1c0-0.1,0-0.1,0.1-0.1v0.5c0,0.2,0.4,0.5,0.7,0.2c-0.1,0-0.2,0-0.4-0.1c0.1-0.1,0.2-0.1,0.2-0.1v-0.2
		c0-0.1,0.1-0.1,0.1-0.1h0.1c0.1,0,0.2,0,0.2,0.1c0,0.1,0.2,0.2,0.5,0.1c0.5-0.1,0.1-0.5,0.5-0.6h0.2c0.4,0.1,1,0.1,1-0.1
		c0.1-0.1,0.1-0.8-0.2-1.1c-0.2,0,0-0.4-0.2-0.7c0.4,0.3,0.9,0.4,1.3,0.4c1.1,0,0.1-0.1,0.5-0.4c0.5-0.4,1.1-0.2,1.2-0.1
		c0.1,0,0.2,0,0.2,0.2c-0.1,0.5,0,0.6-0.1,0.7c0,0.2-0.5,0.1-0.7,0.1c-0.3,0-0.4,0-0.4,0.1c-0.2,0-0.5,0.2-0.5,0.5
		c0,0,0.2-0.1,0.4-0.2v0.1c0.1,0.4,0.5,0.5,0.7,0.2c0,0,0.1,0,0.1,0.1c-0.2,0.1-0.6,0.5-0.2,0.6l0.1,0.1c0,0.1,0.1,0.4,0.4,0.4
		c-0.1,0-0.1-0.1,0-0.4h0.1c0.2,0,0.1-0.5,0.4-0.6h0.1c-0.1,0.4-0.1,0.6,0.1,0.7h0.1c0.1,0.2,0.4,0.4,0.6,0.1c0,0-0.2,0-0.2-0.1
		s0.1-0.2,0.1-0.2c0.1-0.6-0.2-0.6-0.2-0.8c0-0.2,0.5,0,0.5-0.6c0,0,0-0.2-0.2-0.2v-0.1c0.1,0,0.2,0.1,0.4-0.1
		c-0.4,0-0.2-0.4-0.4-0.6h0.1c0.1-0.1,0.1-0.2,0.1-0.6c-0.1,0.1-0.6,0.4-0.6,0c0,0,0-0.2-0.4-0.2c-0.7,0.1-1.1-0.2-2.3-0.4
		c-0.1,0-0.1,0,0-0.1 M180.7,172.5h-0.1H180.7 M182.5,172c0.1,0.1,0.6,0.4,0.8,0.4c-0.4,0.1-0.2,0.2-0.5,0.2
		C182.6,172.7,182.5,172.3,182.5,172 M182,171.8c-0.1,0.2-0.4,0.4-0.6,0.1c-0.1-0.1,0.1-0.2-0.1-0.5
		C181.4,171.6,181.9,171.8,182,171.8 M181.2,173.6c0.1-0.2,0.1-0.4,0.2-0.4c0.1,0,0.3,0,0.3-0.1c0.1-0.1-0.1-0.2-0.3-0.4
		c0.3,0,0.3-0.1,0.1-0.1c0-0.1-0.2,0-0.2-0.1l0.1-0.1c0.1-0.1,0.1,0,0.2,0l0.7,0.4c0.1,0,0.1,0,0.1,0.1v0.2c-0.1,0-0.1-0.2-0.3-0.2
		c-0.1,0-0.1,0.1,0,0.2c-0.2,0-0.4-0.1-0.4,0c-0.1,0.1-0.1,0.2,0,0.4v0.4c-0.1,0.1-0.4,0.4-0.6,0.2C181,174,181.2,173.8,181.2,173.6
		 M191.1,214.6l-0.6-0.1V214c0.1-2.2-1.2-3.7-3.5-3.7c-2.1,0-6,2.7-11.6,2.7c-2.4,0-5.2-1.2-6.9-2.3l-0.7,1.7v-0.1
		c0-0.8-0.7-1.4-1.5-1.4c-0.7,0-1.3,0.7-1.3,1.4c0,0.7,0.6,1.3,1.3,1.3c0.5,0,0.8-0.1,1.1-0.5l-0.7,1.7c0.4,0.1,0.6,0.2,0.8,0.2
		c-0.8,8.5,5.3,19.2,16.4,22.5c1.6-0.4,3.3-0.1,3.3,1.6c0,1.2-0.5,1.7-1.6,1.7c-0.6,0-1.1-0.5-1.1-0.8c0-0.7,1.3-0.4,1.5-0.8
		c0.2-0.6-0.2-1-1-1c-0.8,0-1.9,0.5-1.9,1.8c0,1.4,1.2,2.4,2.5,2.4c1.2,0,3.7-0.7,3.4-3.7c0.6,0,1.3,0,1.4-0.6l0.1-1.7l-0.6-0.1
		l0.5-19.3h0.4c0.7,0.1,1.3-0.2,1.5-1C192.3,214.9,191.7,214.6,191.1,214.6 M171.2,216l13.4,19.3C177.4,232.6,170.3,226.1,171.2,216
		 M184.9,233.4l-12.2-17.5h1.2c0.6,0,1.2,0,1.8-0.1l9.8,14.1C185.4,231.3,185.2,232.5,184.9,233.4 M185.9,227.9l-8.6-12.3
		c0.8-0.2,1.8-0.5,2.7-0.8l6.5,9.3C186.2,225.3,186,226.6,185.9,227.9 M188,214.3l-0.5-0.1c-0.6,0-1.3,0.2-1.3,1.1
		c-0.1,0.7,0.5,1.2,1.1,1.2h0.5c-0.1,0.2-0.1,0.4-0.1,0.5c-0.1,1.1-0.5,2.9-0.7,5.1l-5.6-7.9c2.5-1,4.6-2.2,5.8-2.2
		C188,212.1,188.2,212.5,188,214.3 M221.3,194.3c0.4-0.1,0.8-0.4,1-0.8c-0.3,0.2-0.7,0.1-1-0.1c0.4-0.2,0.7,0,0.4-0.6
		c-0.5-0.7-0.7-0.7-1.2-0.2c-0.4,0.5-3.3-0.1-3.1-2.3c0.1,0.4,0.5,0.7,1,0.8c0.1,0,0.1,0.1,0.2,0.1c0.1,0.1,0.2,0.1,0.4,0.1
		c0.4,0.1,0.6,0.1,0.8,0.1h0.1v-0.1c0.6-0.1,1.1-0.5,1.2-1.1c0.1-1.2-1.1-1.7-2.3-2.8c-0.4-0.3-0.7-0.6-1.1-1
		c-0.5-0.8-0.2-1.7-1.2-3.1c-0.2-0.5-0.3-1-0.4-1.4c-0.8,1.5-0.6,3.3,0.6,4.6c1.2,1.3,3.7,2.5,3.6,3.6c0,0.2-0.2,0.5-0.6,0.6h-0.4
		c-0.1,0-0.1-0.1-0.2-0.1c-0.2-0.1-0.4-0.1-0.5-0.3c-0.4-0.1-0.6-0.4-1-0.7c-1.1-1-1.9-2.4-2.7-3.3c-1.1-1.5-0.6-2.9-0.4-4.1
		c0.7-1.2-0.6-3.5-1.3-4.1c0,0,0.1-0.6,0-1.2c-0.3,0.1-0.6,0.1-0.8,0.1c-0.1-0.5-0.3-0.6-0.5-0.6c-0.6-0.1-0.6-0.4-0.6-0.6
		c-0.2,0.2-0.4,0.5-0.7,0.6c-0.4,0-0.6,0-0.7,0.1c-0.4,0.2-0.5,0.4-1,0.4c-0.4,0-0.4,0.2-0.4,0.6c0,0.1,0,0.5,0.4,0.6l0.1,0.1
		l0.4,0.4l0.2-0.4c0.2-0.2,0.8-0.2,1,0.1c0.1,0.4,0.1,0.4-0.2,0.5h-1c-0.4,0.1-0.4,0.5-0.4,0.6c0,0.4,0.4,0.5,1,0.4
		c0.6-0.2,1.6-0.2,1.6,0.1c0,1.3-1.4,1.3-1.8,2.8c-0.4-0.2-0.7-0.5-0.8-0.8c-0.3-0.5-0.7-0.9-1.1-1.3c-0.4-0.2-0.7-0.6-1.1-0.8
		c-0.5-0.4-0.6-0.5-0.6-1.1c0-0.5,0.2-0.8,0.2-1.3c0,0-0.1-0.2-0.1-0.4c-0.1-0.2-0.5-0.5-0.7-0.4c0.1,0,0.2,0.1,0.4,0.4l-0.2,0.2
		c-0.1,0.1-0.1,0.4,0,0.5v0.4c-0.1-0.4-0.2-0.8-0.6-0.8h-0.2v-0.1c0-0.2-0.2-0.5-0.7-0.1c0.1,0,0.2,0,0.4,0.1
		c-0.1,0.1-0.1,0.2-0.1,0.2c0,0.3,0.2,0.6,0.5,0.6c0,0,0,0,0.1,0h0.1v0.2c-0.6-0.4-0.8,0-0.8,0.2v0.2c-0.3,0.1-0.3,0.5,0.1,0.7
		c0-0.1,0-0.4,0.1-0.5h0.1c0,0.1,0.1,0.1,0.1,0.1c0,0.1,0.1,0.1,0.4-0.1h0.1l0.1,0.1c0.1,0.1,0.1,0.1,0,0.1
		c-0.4,0.4-0.2,0.7,0.2,0.8c-0.4,0.4-1,0.2-1-0.4c-0.5,0.8,0.4,1.3,1.1,1.1c0,0.2,0,0.8,0.1,0.8c0-0.1,0-0.1,0.1-0.1
		c0,0.2,0.1,0.5,0.4,0.5c0-0.1,0-0.2,0.1-0.2c0.1,0.2,0.2,0.4,0.4,0.6c0.2,0.5,1,2.1,2.5,2.7c-0.8,0.5-1.3,1.2-1.8,1.7
		c-0.5,0.5-1.1,1-1.5,0.7l-0.5-0.5c-0.1-0.1-0.4-0.1-0.5-0.1c0,0-0.1,0-0.2,0.1c-0.3-0.1-0.6,0-0.7,0.2c0.1,0,0.2-0.1,0.5,0.1v0.2
		c0,0.1,0.1,0.4,1,0.2c0,0,0.1,0.1,0,0.1c0,0.1-0.1,0.2-0.4,0.1c-0.4-0.1-0.5-0.4-0.7,0c-0.1,0-0.1,0.1-0.2,0.2c0-0.1,0,0,0,0
		c-0.4,0-0.7,0.6-0.4,0.8c0-0.1,0.1-0.2,0.3-0.5l0.2,0.2c0.2,0.4,0.5,0.5,1-0.2c0.1-0.1,0.1,0,0.1,0c-0.1,0.4-0.5,0.8,0,1h0.2v0.1
		c0.1,0.4,0.7,0.5,1,0.4c-0.2,0-0.5-0.1-0.6-0.5h0.2c0.4-0.4,0-0.7,0.1-0.8c0-0.1,0.1,0,0.1,0c0.1,0.1,0.4,0.5,0.7,0.2
		c0.2-0.1,0.4-0.2,0.4-0.5c0.5-0.2,1-0.4,1.3-0.2c0-0.2,0.2-0.7,0.8-0.8c0.6-0.1,0.8,0,1,0.2c0.1-0.2,0.4-0.6,0.6-1
		c-0.1,2.2,3,2.2,3.6,3.5c-0.8-0.4-1.9-0.6-2.4-0.5c-0.7,0.1-2.1,0.8-2.2,1.7c-0.1,0.6,0.5,1.8,1.2,2.4c-0.8,0.1-1.1-0.1-1.9,0h-0.1
		c-0.6,0.1-0.7-1.1-1.6-0.8l-0.2,0.2c-0.2,0-0.7,0.4-0.6,0.7c0-0.1,0.2-0.2,0.5-0.4v0.2c0,0.1,0,0.2,0.3,0.2c0.2,0,0.2-0.1,0.4-0.1
		c0,0,0.1,0,0.1,0.1c0,0.2-1.1-0.2-0.8,0.7c0,0,0.1,0.1,0.1,0.2c0,0.2,0.2,0.5,0.6,0.4c0-0.1-0.2-0.2-0.1-0.4h0.1
		c0.1,0,0.1,0,0.1-0.1h0.1v0.5c0,0.4,0.5,0.7,1,0.4c-0.1,0-0.5-0.1-0.5-0.2c0.1,0,0.2-0.1,0.2-0.1s0.1-0.1,0.1-0.3v-0.1h0.2
		c0.1,0,0.1,0,0.1,0.1c0.1,0.1,0.4,0.2,0.6,0.2c0.2-0.1,0.2-0.2,0.4-0.2c0.1,0,0.2,0.1,0.4,0.2c-0.1-0.4,0.1-0.6,0.8-0.1l0.5-0.4
		c0,0,0.6,0.2,0.8-0.1c0.5-0.4,0.2-0.4,0.2-0.7c-0.2-0.6-0.5-0.6-0.6-1.2c-0.2-1.2,1.3-1.8,2.2-1.6c0.2,0.7,1.2,2.5,2.9,3.1
		c1,0.4,1.5-0.8,1.8-0.6c0,0,0.1,0.1,0.1,0.2c0,0.5,0,1-0.1,1.2c-0.1,0.2-0.6,0-1,0c-0.2,0-0.5,0.1-0.5,0.2c-0.3,0-0.6,0.2-0.6,0.7
		c0.1-0.1,0.2-0.4,0.6-0.4v0.1c0,0.5,0.5,0.6,0.7,0.4c0.1-0.1,0.2,0,0.1,0c-0.2,0.2-0.7,0.6-0.2,0.7l0.1,0.1c0,0.4,0.2,0.6,0.5,0.6
		c-0.1-0.1-0.1-0.2,0-0.5h0.2c0.2,0,0.1-0.6,0.5-0.7c-0.1,0.4-0.1,0.7,0.1,0.8h0.2c0.1,0.2,0.4,0.5,0.8,0.2c-0.1,0-0.4-0.1-0.4-0.2
		c0-0.1,0.1-0.2,0.1-0.4c0.2-0.6-0.4-0.6-0.4-0.8c0-0.4,0.7-0.1,0.7-0.8l-0.1-0.1c0.4-0.1,0.7-0.4,0.7-0.6c-0.4,0-0.7-0.1-0.8-0.1
		L221.3,194.3z M227.6,198.1c0.6,0.5,0.5,1.4-0.4,1.3c-0.7-6.5-3.3-12.8-6.9-18.1c0,0,0-0.1,0.1-0.1c0.8-0.3,1.4-1,1.4-1.8
		c-1.1-0.2-1.8,0.4-2.3,1c-0.2-0.4-0.5-0.7-0.7-1c-2.2-2.9-4.8-5.4-7.9-7.4c-2.6-1.8-5.5-3.1-8.6-3.9c0-0.7,1-0.8,1.3-0.2
		c0.1-1.1-0.8-1.7-1.4-1.4c-0.3,0.1-0.6,0.4-0.6,0.8c-0.4-0.5-0.8-0.7-1.7-0.8c0,0.7,0.3,1.3,0.6,1.7c-0.6,0-0.8,0.2-1,0.5
		c-0.4,0.5,0,1.6,1.2,1.7c-0.6-0.5-0.4-1.3,0.4-1.2V183c-0.7-0.1-1.6-0.1-2.3,0.6c0.7,0.8,1.6,0.8,2.3,0.6v15.2
		c-0.7,0.1-1-0.8-0.4-1.3c-1.1,0-1.6,1.1-1.3,1.6c0.1,0.4,0.5,0.6,1.1,0.6c-0.4,0.4-0.6,1-0.6,1.6c0.7,0,1.2-0.2,1.6-0.6
		c0,0.7,0.2,1,0.6,1.2c0.6,0.2,1.6-0.2,1.6-1.5c-0.4,0.6-1.3,0.5-1.3-0.2h10.6c-0.3,0.8,0,1.7,0.6,2.3c0.7-0.7,0.7-1.6,0.6-2.3H226
		c0.1,0.7-0.8,1-1.2,0.4c0,1.1,1,1.6,1.6,1.3c0.4-0.1,0.6-0.5,0.5-1.2c0.4,0.4,1,0.6,1.6,0.6c0-0.6-0.2-1.2-0.6-1.6
		c0.5,0,0.9-0.2,1.2-0.6C229.3,199.2,228.7,198.1,227.6,198.1 M217.4,179.6c-0.4,0.2-0.5,0.7-0.4,1c0.1,0.4,0.5,0.7,1.1,0.7
		c-0.4,0.4-0.7,0.9-0.8,1.5c0.7,0.1,1.3,0,1.7-0.4c-0.1,0.6,0.1,1.1,0.4,1.2c0.2,0.2,0.6,0.2,1,0.1c2.8,4.4,4.6,9.3,5.4,14.5
		c-0.4-0.3-0.9-0.4-1.3-0.4c0,0.7,0.3,1.2,0.7,1.6h-8.9c0-0.5-0.2-1-0.7-1.1c-0.2-0.1-0.7-0.1-1.2,0.4c0-0.6-0.2-1.2-0.6-1.6
		c-0.4,0.4-0.7,1-0.7,1.6c-0.4-0.5-0.8-0.5-1.2-0.4c-0.4,0.1-0.6,0.6-0.6,1.1h-7.6c0.3-0.4,0.5-0.9,0.5-1.5c-0.5,0-1.1,0.2-1.5,0.6
		v-12.4c0.5,0.1,1.1-0.2,1.2-0.6c0.1-0.4,0-0.7-0.5-1.2c0.6,0,1.2-0.3,1.6-0.7c-0.4-0.4-1-0.6-1.6-0.6c0.5-0.5,0.6-0.8,0.5-1.3
		c-0.1-0.4-0.7-0.6-1.2-0.5v-10.5c0.3,0.3,0.8,0.5,1.2,0.5c0.1-0.5,0-1-0.2-1.4c2.3,0.7,4.6,1.9,6.9,3.4
		C213,174.8,215.4,177.1,217.4,179.6 M250.9,202.5c-1.2-1-3.3-2.9-4.4-5.2c-1.3-2.8-7-14-8-15.5c-0.7-1-1-2.2-1.1-3.4
		c0-1.2,0.6-2.1,1.2-3c0.8-0.7,1.5-1.6,2.2-2.4c0.4-0.6,0.6-1,1-1.3c-2.1-3.6-4.2-6.3-6.9-9.4c-3.3-3.7-7-6.9-11.1-9.5
		c2.2-1.5,4.4-3.5,4.4-7c0-1.9-0.8-3.5-2.3-4.8c2.3-7.4,6.4-16.2,9.9-20.1l-7.4-3.1c1.9,2.9,2.1,6.3,1.7,8.3
		c-1.9-1.3-3.6-3.1-4.1-5.6c-0.4,2.2-1.7,5.8-2.8,8c2.2-1,3.9-1.5,6-0.6c-1.2,1.7-4.5,4.4-9.3,3.1c-2.7-0.6-5.2-2.1-5.2-4
		c0.1-1.2,1-2.7,2.7-2.5c1.7,0.1,1.7,2.5,1.2,3.7c2.1-1.2,4.3-7.5,1-8.3c-2.5-0.7-5,2.8-5.8,5.6c-0.5-3.3-1.8-6.4-4.5-6.3
		c-3.4,0.2-2.3,6.5-1.1,8.1c0.2-2.2,1.4-3.4,2.4-3.3c0.8,0,2.1,0.7,1.9,2.7c-0.2,2-3.1,3.3-6.4,3.3c-3.1,0-8.6-1-9.1-7
		c2.1,0.4,5.2,1.9,6.5,4c-0.4-3.3-0.4-6.7,0-10c-1.6,2.1-3.9,3.4-6.4,3.9c0.5-2.5,2.8-5.3,5.3-6.9h-13.4c2.5,1.6,4.8,4.4,5.4,6.9
		c-2.1-0.4-4.7-1.6-6.4-3.9c0.4,3.3,0.4,6.7,0,10c1.3-2.1,4.4-3.6,6.4-4c-0.5,6-5.9,7-9.1,7c-3.3,0-6.2-1.2-6.3-3.3
		c-0.2-1.9,1-2.7,1.8-2.7c1.1-0.1,2.3,1.1,2.4,3.3c1.2-1.6,2.3-7.9-1.1-8.1c-2.7-0.1-4,3-4.5,6.3c-0.8-2.8-3.3-6.3-5.8-5.6
		c-3.3,0.8-1.1,7.1,1,8.3c-0.5-1.2-0.4-3.6,1.2-3.7c1.7-0.1,2.5,1.3,2.7,2.5c0.1,1.9-2.5,3.4-5.2,4c-4.8,1.2-8-1.3-9.2-3.1
		c2.2-0.8,3.9-0.4,6,0.6c-1.2-2.6-2.1-5.2-2.8-8c-0.5,2.4-2.2,4.2-4.1,5.6c-0.6-2.9,0-5.9,1.6-8.3l-7.4,3.1
		c3.5,3.9,7.6,12.8,9.9,20.2c-1.4,1.2-2.2,2.8-2.2,4.7c0,3.5,2.2,5.6,4.4,7c-4.1,2.7-7.9,5.9-11.1,9.5c-5.1,5.8-9,12.5-11.7,19.7
		c1,1,5.4,5.8,6.4,7.1c1.9,2.3,3,4.7,3,6.5c0.1,3.3,0.8,4.6,2.7,6.9c0.5,0.6,1.3,3.3,1.3,4.8h36.7v40c-1.5,0-3,0.4-4.2,1.9
		c4.2,1.7,8.2,3.3,12.3,4.5c0.4-2.5,0.8-4.2,2.2-5.8c0,0-5.3-0.5-8.1-0.7v-39.9h35.8c-0.1,5.4-1.1,10.8-2.9,15.8
		c-1.9,5.1-4.6,9.9-8.1,14c-3.3,3.9-7.3,7.1-11.8,9.4c-0.7,0.2-0.7,0.8-1.4,1.1c-0.6,0.7-1.2,1.9-1.8,3.3c-0.4,1.2-0.6,2.4-0.7,3.6
		c1.7,0.5,2.5,0.7,4.1,1.2c12.7,3.1,15.7,2.2,16.4,1.7v-0.1c2.9-2.2,5.6-4.7,8-7.4c5.1-5.7,8.9-12.3,11.7-19.8
		c2.9-7.6,4.4-15.7,4.4-24.2C251,204.5,251,204.1,250.9,202.5 M195.3,205.3h-36.7c0.1-5.7,1.1-11.2,2.9-16.4c1.9-5.1,4.6-9.9,8.1-14
		c3.3-3.9,7.3-7.1,11.8-9.3c4.5-2.2,9.1-3.4,13.9-3.4L195.3,205.3z M195.9,144.1c-12.2,0-20.7,3.6-25.5,6.9
		c-2.9-1.7-4.1-3.3-4.1-5.3c0-6.9,19.6-7.5,29.6-7.5c9.9,0,29.6,0.6,29.6,7.5c0,2.1-1.2,3.6-4.1,5.3
		C216.6,147.7,208.1,144.1,195.9,144.1 M197.5,205.3v-43.1c4.5,0.2,8.8,1.3,12.9,3.4c4.5,2.2,8.5,5.3,11.8,9.3
		c3.5,4.2,6.2,8.9,8.1,14c1.8,5.2,2.8,10.8,2.9,16.4H197.5z M320,294.4c-0.2-0.5-0.8-0.8-1.3-0.6c-11.5,3.3-25.7-6.2-39.5-15.5
		c-11.6-7.6-22.6-15-32-15c-3.4,0-6.5,0.7-9.2,2.2c-3.3,1.8-5.7,4.7-7.2,8.5c-1.2,3-2.8,5.9-4.6,8.6c-1.6,2.5-2.8,4.3-2.8,6.6
		c0,1.8,0.8,3.5,2.4,5.2c1.3,1.3,3.3,2.5,6,4.1c0.6,0.2,1.1,0.5,1.7,0.8c2.3,1.1,3.8,1.8,4,3.1c-4.6,1.9-10.4,3.6-17,4.8
		c-7.6,1.3-15.8,1.9-24.5,1.9c-8.8,0-17-0.6-24.5-1.9c-6.8-1.2-12.6-2.9-17.2-4.8c0.3-1.9,1.6-2.7,4.1-3.9c0.6-0.4,1.2-0.6,1.8-1
		c2.3-1.2,4.4-2.3,5.8-3.6c1.7-1.4,2.4-3,2.4-4.8c0-2.3-1.1-4.1-2.8-6.6c-1.3-2.1-2.9-4.7-4.6-8.6c-1.3-3.6-3.9-6.6-7.3-8.5
		c-2.7-1.4-5.8-2.2-9.2-2.2c-9.4,0-20.3,7.4-31.9,15.1c-13.9,9.2-28.2,18.6-39.6,15.3c-0.5-0.2-1.1,0.1-1.2,0.6
		c-0.2,0.5,0,1.1,0.6,1.3c3.4,1.6,6.5,4,9.5,6.3c4.1,3.1,8,6.3,12.3,6.3c4.1,0,8.5-1.3,13.8-4.1c4.6-2.4,9.4-5.7,14-8.8
		c9.1-6.3,18.5-12.7,27.4-13.4c-0.8,0.9-1.8,1.8-2.8,2.5c-2.5,2.4-4.8,4.5-4.8,8.6c0,3.3,1.1,5.6,2.7,8.7c0.5,1,1,2.1,1.5,3.3
		c1.1,2.2,1.5,3.9,2.1,6.4c0.3,1,0.5,2.2,0.8,3.6c0.6,2.1,1.7,6,8.2,9.3c7.5,3.9,20.5,5.8,38.8,5.8c18.1,0,31.2-1.9,38.8-5.8
		c6.5-3.3,7.5-7.3,8.1-9.3c0.4-1.5,0.6-2.7,1-3.6c0.4-2.2,1-4.4,1.9-6.4c0.6-1.4,1.3-2.8,2.1-4.1c1.3-2.5,2.4-4.6,2.4-7.5
		c0-4.2-2.4-6.3-5.1-8.8c-1.1-0.8-2-1.7-2.9-2.7c8.9,0.7,18.4,7.1,27.4,13.4c4.6,3.1,9.4,6.4,14,8.8c5.4,2.8,9.8,4.1,13.9,4.1
		c4.2,0,8.2-3.1,12.3-6.3c2.9-2.3,6-4.7,9.5-6.3C319.9,295.5,320.2,295,320,294.4 M204.8,282.6c-0.5,0-1.1,0.1-1.6,0.3V273
		c-4.4-0.1-9.4-0.8-14.4-2.2v12c-0.6-0.1-1.1-0.2-1.7-0.2c-3.1,0-5.5,2.4-5.6,5.5c0,0,0,0,0,0.1c0,2.5,1.4,4.8,2.7,6.4
		c0.7-1.6,1.3-2.8,2.2-2.8c1.7,0,0.8,8.5,5.9,8.7c-0.2,0.4-0.2,0.8-0.2,1.3c0,2.2,1.7,4,3.9,4c2.2,0,3.9-1.8,3.9-4c0,0,0,0,0,0
		c0-0.5,0-1-0.2-1.3c5.1-0.2,4.2-8.7,5.9-8.7c0.8,0,1.3,1.1,2.2,2.8c1.2-1.6,2.7-3.9,2.7-6.4C210.3,285.1,207.9,282.6,204.8,282.6
		C204.8,282.6,204.8,282.6,204.8,282.6 M195.9,304c-1.2,0-2.2-1-2.2-2.2c0,0,0,0,0,0c0-1.2,1-2.2,2.2-2.2c1.2,0,2.2,1,2.2,2.2
		C198.1,303,197.1,304,195.9,304 M207.6,291.7c-0.6-1.1-1.4-1.7-2.3-1.7c-3.3,0-1.9,8.8-5.9,8.8c-1.8,0-2.7-1.1-2.7-2.4
		c0-1.2,0.8-1.6,0.8-2.5c0-1.1-0.8-1.5-1.7-1.5c-0.8,0-1.7,0.4-1.7,1.4c0,1,1,1.3,1,2.5c0,1.3-1,2.4-2.8,2.4c-4,0-2.7-8.8-5.9-8.8
		c-0.8,0-1.7,0.6-2.3,1.7c-0.6-1.1-0.9-2.3-1-3.5c0-1.6,1.2-3.9,3.9-3.9c4.5,0,3.4,6.2,5.5,6.2c1,0,1.6-0.6,1.6-1.5
		c0-1.8-3-3.5-3-5.9s2.2-4.6,4.7-6.6c2.5,2.1,4.7,4.2,4.7,6.6c0,2.4-3,4.1-3,5.9c0,0.8,0.6,1.4,1.6,1.4c2.2,0,1.1-6.2,5.6-6.2
		c2.7,0,3.9,2.3,3.9,3.9C208.6,289.1,208.3,290.4,207.6,291.7 M210,258.4c-8.2-2.1-18-5.6-27.1-9.8c0.2-1.9-0.5-4-1.9-5.6
		c-1.3-1.6-3.3-2.5-5.1-2.5c-0.8,0-1.7,0.1-2.5,0.5c-1.3-1.2-2.6-2.5-3.7-3.9c-3.5-4.1-6.3-8.9-8.1-14c-1.1-3-1.8-6.1-2.3-9.3
		c-0.5,2.7-3.5,6.2-8.6,6.3c0-0.6,0-1.9-0.5-2.1c-1.3,1.6-3.4,3.1-8,1.4c0.7,3.6,1.7,7.3,3,10.6c2.8,7.5,6.6,14.1,11.7,19.8
		c1.7,1.9,3.4,3.6,5.3,5.2c-0.1,0.4-0.1,0.7-0.1,1.1c0,1.9,1.9,5,4.6,6.3c2.2,1.1,4.5,0.8,6.6-0.7c4,2.1,9.1,4.1,14.5,5.6
		c6.2,1.7,12.1,2.7,16.7,2.7c4,0,9.3-1.8,14.5-5.1c2.2-1.3,4.2-2.9,6-4.7C221.1,260.8,214.9,259.6,210,258.4 M179.9,246.1l-0.8-0.7
		c-1.6-1.1-2.9-1.1-4.4,0.1c-0.6,0.6-1.3,1.3-1.8,1.9l-1,1.1l0.6,0.5c1.7,1.3,1.9,2.8,1.4,3.6c-0.2,0.4-0.5,0.6-0.8,0.7
		c-0.8,0.1-2.1-0.1-3.3-0.8l-0.6-0.4l-0.4,0.6c-0.1,0.2-0.2,0.4-0.4,0.5c-0.1,0.2-0.2,0.4-0.4,0.6c-0.7,1.3-1.1,2.3-1.1,3v0.6
		c0.3,1,1.1,1.5,1.7,1.7l0.4,0.4c0.8,0.5,1.8,1.1,2.7,1.4c-1.3,0.9-3,1-4.5,0.2c-2.2-1.1-3.7-3.6-3.7-5c0-1.9,1-4.3,2.5-6.9l0.3-0.4
		l-0.3-0.5c-0.4-0.7-0.8-1.4-1.2-2.2c1,0.1,1.8,0.2,2.5,0.5h0.5l0.2-0.2c1.1-1.1,4.5-4.6,7.7-4.6c1.4,0,2.9,0.7,4,2.1
		c0.8,1,1.3,2.1,1.4,3.1C181,246.8,180.4,246.5,179.9,246.1 M185.2,261.7c-1.9,0-3.5-1.6-3.5-3.5c0-1.9,1.6-3.5,3.5-3.5l0,0
		c1.9,0,3.5,1.6,3.5,3.5C188.7,260.1,187.1,261.7,185.2,261.7 M200.5,266.4c-1.8,0-3.2-1.4-3.3-3.1c0-1.8,1.4-3.2,3.1-3.3
		c0.1,0,0.2,0,0.2,0c1.8,0.1,3.1,1.6,3,3.4C203.6,265,202.2,266.4,200.5,266.4 M200.3,79.5c-1.8-1.5-3.3-3.5-3.5-5.8
		c2.2,0.5,4.5,1.9,5.9,3.9v-9.1c-1.5,1.9-3.6,3.3-5.9,3.9c0.2-2.3,1.6-4.2,3.4-6.5h-8.7c1.9,2.3,3.3,4.2,3.5,6.5
		c-2.2-0.5-4.6-1.9-5.9-3.9v9.1c1.3-1.9,3.7-3.4,5.9-3.9c-0.4,2.3-1.7,4.4-3.6,5.8L200.3,79.5z M187.8,90.3c0.9,3.7,4.2,6.4,8,6.4
		c4,0,7.2-2.8,8-6.4L187.8,90.3z M197.5,87.2h6.4c-0.6-3.3-3.1-5.9-6.4-6.6V87.2z M194.1,87.2v-6.6c-3.3,0.6-5.8,3.3-6.4,6.6
		L194.1,87.2z M200.3,99.4c-0.9,0.5-1.9,0.8-2.9,1v11.1h2.9V99.4z M191.5,111.5h2.9v-11.1c-1-0.1-2-0.4-2.9-1V111.5z M200.9,97.5
		c0,1.5,1.2,2.5,2.7,2.5c1.5,0,2.5-1.1,2.5-2.5c0-1.4-1.1-2.7-2.5-2.7C202.1,94.8,200.9,96,200.9,97.5 M209.6,97.2
		c1.4,0,2.7-1.2,2.7-2.7c0-1.4-1.2-2.5-2.7-2.5c-1.4,0-2.5,1.1-2.5,2.4c0,0,0,0.1,0,0.1C207.1,96,208.1,97.2,209.6,97.2 M216,95.3
		c1.4,0,2.7-1.2,2.7-2.5c0-1.4-1.2-2.7-2.7-2.7c-1.3,0-2.5,1.2-2.5,2.7C213.5,94.1,214.7,95.3,216,95.3 M234.4,101.1
		c1.4,0,2.7-1.1,2.7-2.5c0-1.5-1.2-2.7-2.7-2.7c-1.4,0-2.6,1.2-2.5,2.6c0,0,0,0,0,0C231.8,100,232.9,101.1,234.4,101.1 M229.3,96.6
		c1.4,0,2.7-1.1,2.7-2.5c0-1.4-1.2-2.7-2.7-2.7c-1.3,0-2.5,1.2-2.5,2.7C226.7,95.5,228,96.6,229.3,96.6 M222.9,94.7
		c1.4,0,2.5-1.2,2.5-2.7c0-1.4-1.1-2.5-2.5-2.5c-1.4,0-2.7,1.2-2.7,2.5C220.2,93.5,221.4,94.7,222.9,94.7 M236.9,114.5
		c-1.5,0-2.7,1.2-2.7,2.7c0,1.4,1.2,2.5,2.7,2.5c1.4,0,2.5-1.1,2.5-2.5C239.5,115.7,238.4,114.5,236.9,114.5
		C236.9,114.5,236.9,114.5,236.9,114.5 M238.1,108.2c-1.4,0-2.5,1.1-2.5,2.5c0,1.4,1.1,2.7,2.5,2.7c1.4,0,2.7-1.2,2.7-2.7
		C240.8,109.4,239.6,108.2,238.1,108.2 M234.6,104.5c0,1.4,1.2,2.7,2.7,2.7c1.4,0,2.5-1.2,2.5-2.7c0-1.4-1.1-2.5-2.4-2.5
		c0,0-0.1,0-0.1,0C235.8,101.9,234.6,103,234.6,104.5 M188.2,100c1.4,0,2.5-1.2,2.5-2.5c0-1.4-1.1-2.7-2.5-2.7
		c-1.5,0-2.7,1.2-2.7,2.7C185.5,98.8,186.8,100,188.2,100 M182.2,97.2c1.3,0,2.5-1.2,2.5-2.7c0-1.4-1.2-2.5-2.5-2.5
		c-1.4,0-2.7,1.1-2.7,2.5C179.5,96,180.7,97.2,182.2,97.2 M175.6,95.3c1.5,0,2.7-1.2,2.7-2.5c0-1.4-1.2-2.7-2.7-2.7
		c-1.4,0-2.5,1.2-2.5,2.7C173.1,94.1,174.2,95.3,175.6,95.3 M157.3,101.1c1.4,0,2.7-1.1,2.7-2.5c0-1.5-1.2-2.7-2.7-2.7
		c-1.4,0-2.6,1.2-2.5,2.6c0,0,0,0,0,0C154.7,100,155.8,101.1,157.3,101.1 M162.3,96.6c1.4,0,2.7-1.1,2.7-2.5c0-1.4-1.2-2.7-2.7-2.7
		c-1.5,0-2.5,1.2-2.5,2.7c0,1.4,1.1,2.5,2.4,2.5C162.3,96.6,162.3,96.6,162.3,96.6 M168.9,94.7c1.4,0,2.5-1.2,2.5-2.7
		c0-1.4-1.1-2.5-2.5-2.5c-1.5,0-2.7,1.2-2.7,2.5C166.2,93.5,167.4,94.7,168.9,94.7 M157.4,117.2c0-1.4-1.1-2.7-2.5-2.7
		c-1.5,0-2.7,1.2-2.7,2.7c0,1.4,1.2,2.5,2.7,2.5C156.3,119.7,157.4,118.6,157.4,117.2 M156.2,110.9c0-1.4-1.1-2.6-2.5-2.7
		c0,0-0.1,0-0.1,0c-1.4,0-2.5,1.1-2.5,2.7c0,1.4,1.1,2.5,2.5,2.5C155,113.4,156.2,112.3,156.2,110.9 M154.5,107.1
		c1.4,0,2.5-1.2,2.5-2.7c0-1.4-1.1-2.5-2.4-2.5c0,0-0.1,0-0.1,0c-1.4,0-2.7,1.1-2.7,2.5C151.8,105.9,153,107.1,154.5,107.1
		 M215.2,108.7c1.4,2.9,2.8,4.6,2.7,6.8c-0.3,2.3-2.5,3.9-3.8,6c-1-2.5-2.7-4.5-2.4-6.5C211.9,112.9,214.7,110.3,215.2,108.7
		 M176.6,108.7c-1.4,2.9-2.8,4.6-2.5,6.8c0.1,2.3,2.5,3.9,3.6,6c1-2.5,2.7-4.5,2.4-6.5C180,112.9,177.1,110.3,176.6,108.7"/>
</g>
</svg>
