<svg width="150" height="150" viewBox="0 0 150 150" fill="none" xmlns="http://www.w3.org/2000/svg">
<rect width="150" height="150" fill="white"/>
<path d="M131.2 77.6C133.5 79.3 135.9 80.5 135.9 83.2C135.9 84 134.9 84.8 132.7 84.8C131 84.8 129.2 84.3 128.3 83.1C127.6 82.2 128.6 80.9 128 80C127.5 79.2 126.5 79.6 125.8 79.2C125 78.7 124.9 78.4 124.3 77.2C123.7 75.8 121.6 73.5 119.1 71C117 68.9 114.8 67.8 113.8 67.9C113.1 68 112.9 68 112.2 68C110.4 68 108.9 69.7 106.3 70.8C104.5 71.6 103.5 72 102.4 72.2L102 72.7L104.3 72.6C106.5 72.6 109.3 72.3 111.5 72.3C113.7 72.3 114.8 74.3 115.7 76.4C117.4 80.6 119.9 86.7 123 91.8C124.5 94.2 125.7 95.7 125.7 98.7C125.7 99.6 125.6 100.9 124.4 100.9C122.7 100.9 118.4 99.1 118.4 97.2C118.4 95.7 119.6 95.1 119.6 93.6C119.6 92.7 118.2 92.8 117.9 92C116.8 87.5 115.5 83 113 80.3C111.7 78.9 111.5 78.3 110.2 78.3C109.5 78.3 108.8 78.5 108.2 78.7C104.7 80 100 84 94.1 85.7C91.9 86.4 91.5 85.1 89.2 85.5H89.4C87.5 85.9 86.1 87 83.5 87.7C80 88.7 73.9 89.2 69 88.5C65.5 88 61 87.3 59.1 87.4C57.6 91.6 54.5 97.2 49.8 99.4C47.3 100.5 46.6 102 47.3 104.8C48.2 108.3 51.3 110.8 52.9 113.8C54.4 116.3 56.8 120.4 59.3 121.7C61.8 123 63.4 124.9 63.4 126.6C63.4 127.4 63.1 127.8 62.3 127.8H57.2C56.4 127.8 56 127.3 55.9 127C55.2 125.7 55.7 124.5 54.7 123.3C54 122.5 53.5 122.7 52.6 122C51.1 120.5 52.2 119.7 51.1 117.8C47.9 112.7 46.5 111.5 43.8 107.8C42.3 105.9 40.4 104.9 40.4 102.4C40.4 99.3 43.5 98.8 43.4 95.7C41.4 97.2 39.1 98.3 35.5 98.8C35 98.9 33.8 99.8 33.3 100.4C32.1 101.6 31.6 102.9 31.4 104.7C31 108.9 30.2 113.1 30.7 117.3C31.4 120 31.9 120.9 34.1 122.4C35.5 123.3 37.1 124.6 37.3 126.6C37.3 127.1 37.1 127.8 36.4 127.8H30.9C30.4 127.8 29.9 127.4 29.7 127.1C29.1 126 29.5 125.3 29.2 124C28.7 121.5 25.8 121.6 25.8 119C25.8 118.2 26.3 117.2 26.3 115.6C26.5 112.1 27.5 106.3 26.5 99.4C26 95.4 30.2 95.2 32.4 91.7C33.7 89.7 33.3 90.5 34.1 89.1C34.9 87.6 34.7 86.5 34.6 85.6C34.6 84.4 33.4 82 34.2 77C34.5 74.8 35.6 72.5 37.1 70.6C37.1 70.5 37.1 70.2 36.6 70.2C34.4 70.4 34.4 69.8 33 69.8C31.6 69.8 30.5 71 30.3 71.6C29.6 71.3 29.3 70.5 29.3 70.1C29.3 69.3 29.5 68.6 30.2 67.9C30.5 67.6 30.2 67.4 29.8 67.4C28.1 67.4 26.5 69.5 26.1 70.9C25.1 70.7 25 69.4 24.6 69.4C24.1 69.4 23.8 70.1 23.8 70.8C23.8 75.7 31.8 76.8 31.8 83.3C31.8 90.8 22.8 89.2 22.8 91.9C22.8 92.4 23.2 92.9 23.9 93.2C23.6 93.9 22.8 94.2 22 94.2C20 94.2 18.5 92.7 18.5 90.7C18.5 86.6 24 86.5 24 83.4C24 81.9 23.1 81.5 22.2 80.8C17 77.1 14 73.4 14 67.3C14 60.7 18.6 55.7 24.5 55.7C33.1 55.7 33.4 65.7 41.2 66.5C44.1 64.5 47.6 63.3 51 63.3C56.1 63.3 58.3 64.6 63.7 64.6C65.9 64.6 69.5 64 73.8 61C75.4 59.9 76.1 59.7 77.6 58.4C81 55.5 84.2 49.8 84.2 45.7V45.9C84.2 44.6 83.9 43.8 83.3 43.8C81.5 43.8 79.8 45.5 78 47.3C76.8 48.5 78.6 49.1 76 50.5C75.1 51 74 50.1 73 50.1C70.9 50.1 70 47.6 70 45.5C70 44.4 70.8 44.1 71.3 43.1C72.4 41 72.3 40.2 73.3 38.2C73.9 36.8 75 35.9 74.9 34.9C74.9 34.5 74.6 34.3 74.6 33.9C74.6 31.8 77.4 30.4 77.4 28.3C77.4 27.1 76.1 26.6 75.8 25.7C75.5 24.8 75.7 24.5 75.7 24.5C75.8 24.3 75.9 24.3 76.1 24.3C77.2 24.3 77.6 25.5 78.6 26.1C78.7 24.7 78.2 24.4 78.2 23.4C78.2 22.9 78.1 22 78.7 22C79.4 22 79.3 22.9 79.9 23.4C80.7 24 81.4 23.9 82.2 24.5C83.3 25.2 83.9 26.4 84.3 26.4C85.4 26.6 85.7 25.2 85.1 24.5C86.3 24.4 87.6 25.4 89.2 25.4C91.7 25.4 92.6 26.1 93.1 26.5C94.7 27.9 95 29 96.8 29C97.7 29 98.2 28.2 98.4 27.9C99.6 28.8 99.7 31.1 98.4 33.1C98.9 34.7 101.2 34.9 102.3 35.7C103.4 36.5 103.2 36.9 104 37.3C104.6 37.7 105.2 37.6 105.6 37.3C106.1 39.5 104.3 41.4 102 41.7C102.1 44.5 105 46.2 106.3 46.9C105.5 48.6 104.1 49.1 102.9 49.4C103.3 51.1 105.1 53.6 104.2 55.8C103.4 55.4 102.1 55.8 102.1 57C102.1 58.4 103.9 59.1 102 60.1C101.2 60.6 101 61.8 102.5 63C104.5 62.5 106.4 62.5 108.7 62.5C110.1 62.5 111.9 62.1 113.2 62.1C115.5 62.1 116.9 63 118.6 64.9C122.9 69.4 126.8 74.3 131.2 77.6Z" fill="#231F20"/>
<path d="M16.7 65.3C17.6 65.3 19.3 60.2001 22.8 60.2001C23.8 60.2001 24 60.6 24 61C24 61.7 22.8 62.3001 22.8 63.2001C22.8 63.4001 22.9 63.6 23.2 63.6C24 63.6 24.7 61.7001 28.1 61.7001C29 61.7001 29.8 61.8 30.6 62C31 62.1 31.8 62.5001 31.4 61.4001C30.6 59.0001 27.9 56.8 24.2 56.8C20.5 56.8 16.6 60.1 16.2 64.1C16.3 64.8 16.3 65.3 16.7 65.3Z" fill="#6D6E70"/>
<path d="M80.6999 33.5C79.6999 33.1 79.4999 32.6 79.8999 31.3C80.0999 30 80.1999 29.4 79.5999 29.3C79.0999 29.1 78.3999 29.5 77.6999 30.2C77.0999 31 76.0999 32.1 75.7999 32.9C75.4999 34 76.7999 33.8 75.8999 35.6C74.2999 38.5 73.8999 39.2 73.0999 41.2C72.3999 43.4 71.8999 43.7 71.4999 44.4C70.9999 45 72.0999 45.1 73.2999 44.7C74.5999 44.2 74.6999 45.8 74.1999 46.9C73.7999 47.7 74.0999 48 75.1999 47.1C76.1999 46.3 74.6999 45.7 74.9999 43.2C75.3999 41 75.7999 39.7 77.1999 37.5C78.3999 35.6 79.3999 34.2 81.3999 34.9C82.1999 35.3 81.7999 34 80.6999 33.5Z" fill="#6D6E70"/>
<path d="M123.6 99C124 99 124.1 98.5 124.1 98C124.1 96.9 123.5 95.3 122.6 94.6C122.4 96.2 121.6 97.3 121.6 98C121.6 98.5 123.1 99 123.6 99Z" fill="#6D6E70"/>
<path d="M133.2 83.5C133.8 83.5 134.7 83.3 134.7 82.8C134.7 81.9 133.3 80.3 132.1 79.9C132.9 81.5 132.1 83.5 133.2 83.5Z" fill="#6D6E70"/>
<path d="M90.8 62.4C99.5 66.4 99 73.7 99.7 71.9C100 71.1 101.2 67.5 98.1 64C95.7 61.2 94.8 61.9 95.7 59.6C99.5 50.4 101.9 36.5 90.5 31.7C89.2 31.2 88.1 31.2 88.1 31.4C88.1 31.6 89.3 32 90.8 33C98.4 38 96 51.7 89.1 58.3C86.9 60.6 88 61.1 90.8 62.4Z" fill="#6D6E70"/>
<path d="M61 126.4C61.6 126.4 61.3 125.5 61.1 125.1C60.6 124.2 59.6 123.6 58.7 123.2C58.9 124.1 59 126.4 59.9 126.4H61Z" fill="#6D6E70"/>
<path d="M34.6998 126.4C35.2998 126.4 34.8999 125.5 34.5999 125.1C34.0999 124.2 32.9999 123.6 32.0999 123.2C32.2999 124.1 32.4998 126.4 33.3998 126.4H34.6998Z" fill="#6D6E70"/>
<path d="M66.5999 74.1C71.3999 73.6 72.1999 72.5 72.9999 68.9C73.3999 67.2 74.5999 65.4 75.6999 64.3C76.3999 63.5 77.0999 62.9 77.7999 61.8C77.9999 61.3 78.1999 61 77.7999 61.1C77.2999 61.5 75.5999 62.6 74.8999 63.1C71.4999 65.5 66.2999 66.6 64.2999 66.6C59.8999 66.6 56.0999 65.3 52.0999 65.3C40.0999 65.3 35.5999 74.7 36.1999 80.2C36.2999 81.1 36.3999 81.1 36.6999 81.1C37.4999 81.1 38.2999 77.9 41.2999 75C45.6999 70.8 50.4999 68.4 57.2999 68.4C62.1999 68.4 64.2999 70 64.2999 70.6C64.2999 71.8 62.1999 71.9 62.3999 73.1C62.2999 73.6 63.3999 74.5 66.5999 74.1Z" fill="#6D6E70"/>
</svg>
