<svg width="170" height="170" viewBox="0 0 170 170" fill="none" xmlns="http://www.w3.org/2000/svg">
    <path d="M0 0H170V170H0V0Z" fill="white"/>
    <g clip-path="url(#clip0_0_1)">
        <path d="M10 100.929C12.3216 96.1565 14.6432 91.6423 17.2227 87.1281C14.2562 79.9054 11.9347 72.5537 10 64.9441V100.929ZM24.0585 10C24.0585 10 10 10 10 27.4119V36.6982C11.2898 52.5623 14.6432 68.0395 20.1892 82.4849C28.0567 70.1032 37.4721 58.7532 48.951 48.951C71.6509 29.4755 102.218 16.0619 143.749 10.129L24.0585 10Z" fill="#A8BD3A"/>
        <path d="M159.484 19.4154C112.021 23.9295 79.5185 37.4721 56.3027 57.3345C43.7919 68.0396 33.9897 80.5503 25.8641 94.7378C44.0499 130.077 78.8736 156.131 136.784 159.871H142.459C142.459 159.871 160.258 160.516 160.258 140.654V19.2864L159.484 19.4154ZM37.3431 120.146C31.9261 113.826 27.1539 106.862 23.1556 99.5099C18.1255 109.183 13.7403 119.501 10 130.464V159.742L104.927 159.871C75.3912 152.777 53.2072 138.719 37.3431 120.146Z" fill="#003D59"/>
    </g>
    <defs>
        <clipPath id="clip0_0_1">
            <rect width="150" height="150" fill="white" transform="translate(10 10)"/>
        </clipPath>
    </defs>
</svg>
